<svg fill="none" height="467" viewBox="0 0 467 467" width="467" xmlns="http://www.w3.org/2000/svg" xmlns:xlink="http://www.w3.org/1999/xlink"><linearGradient id="a" gradientUnits="userSpaceOnUse" x1="233.5" x2="233.5" y1="7" y2="460"><stop offset="0" stop-color="#f4d68e"/><stop offset=".46875" stop-color="#d1e4bd"/><stop offset=".984375" stop-color="#fffaee"/></linearGradient><circle cx="233.5" cy="233.5" fill="url(#a)" r="226.5" stroke="#835531" stroke-width="14"/><g fill="#000"><path d="m224.476 353.528c-12.96 0-24.516-6.696-34.668-20.088-13.824 4.104-26.46 6.156-37.908 6.156-12.528 0-22.356-2.376-29.484-7.128-7.128-4.536-10.692-10.26-10.692-17.172 0-5.4 2.268-11.232 6.804-17.496s11.556-12.42 21.06-18.468c3.888-2.376 8.1-4.752 12.636-7.128 4.752-2.376 9.828-4.536 15.228-6.48-.648-6.912-.972-14.256-.972-22.032 0-17.712 1.944-37.152 5.832-58.32 3.888-21.384 10.368-44.388 19.44-69.012-15.984 7.992-30.672 17.496-44.064 28.512-13.392 10.8-23.76 21.924-31.104 33.372-2.376 3.888-5.292 5.832-8.748 5.832-2.376 0-3.564-1.188-3.564-3.564 0-1.728.972-4.32 2.916-7.776 1.728-3.456 4.86-7.776 9.396-12.96 8.64-9.936 19.872-19.548 33.696-28.836s28.944-17.28 45.36-23.976c3.672-10.152 7.884-20.088 12.636-29.808 1.296-2.808 3.24-4.212 5.832-4.212 1.728 0 3.132.648 4.212 1.944 1.296 1.08 1.944 2.484 1.944 4.212 0 .864-.216 1.944-.648 3.24-1.296 3.024-2.592 6.048-3.888 9.072-1.08 3.024-2.16 6.048-3.24 9.072 3.024-1.08 6.156-2.052 9.396-2.916s6.372-1.728 9.396-2.592c16.848-3.888 31.86-5.832 45.036-5.832 17.28 0 31.536 2.916 42.768 8.748s19.548 13.824 24.948 23.976c5.4 9.936 8.1 21.276 8.1 34.02 0 13.176-2.808 27.108-8.424 41.796-5.4 14.688-13.392 29.484-23.976 44.388-10.584 14.688-23.76 28.62-39.528 41.796-15.552 13.176-33.372 24.84-53.46 34.992-10.584 5.184-20.628 9.396-30.132 12.636 5.184 5.4 10.476 9.18 15.876 11.34s9.828 3.24 13.284 3.24c3.024 0 5.184-.648 6.48-1.944 1.944-2.16 3.996-3.24 6.156-3.24 1.512 0 2.808.432 3.888 1.296s1.62 1.836 1.62 2.916c0 1.728-1.404 3.348-4.212 4.86-2.592 1.296-5.184 2.16-7.776 2.592-2.592.648-5.076.972-7.452.972zm-31.104-25.92c4.968-1.728 10.152-3.888 15.552-6.48 5.616-2.376 11.34-5.292 17.172-8.748 24.408-14.04 44.604-29.808 60.588-47.304 16.2-17.712 28.296-35.64 36.288-53.784 8.208-18.144 12.312-34.992 12.312-50.544 0-18.576-5.616-33.804-16.848-45.684-11.232-12.096-28.08-18.144-50.544-18.144-10.8 0-23.004 1.62-36.612 4.86-3.672.864-7.344 1.944-11.016 3.24-3.672 1.08-7.344 2.376-11.016 3.888-13.176 34.56-22.248 64.476-27.216 89.748-4.968 25.056-7.344 46.44-7.128 64.152 10.584-3.672 21.924-6.588 34.02-8.748 12.312-2.16 25.056-3.24 38.232-3.24 2.376 0 4.752.108 7.128.324 2.592 0 5.184.108 7.776.324 2.808.216 4.212.864 4.212 1.944 0 1.728-3.24 2.592-9.72 2.592-2.808 0-5.724-.108-8.748-.324-2.808-.216-5.616-.324-8.424-.324-12.096 0-23.652 1.188-34.668 3.564s-20.952 5.4-29.808 9.072c.648 14.472 2.7 26.568 6.156 36.288 3.456 9.504 7.56 17.28 12.312 23.328zm-32.4 5.832c7.56 0 16.2-1.296 25.92-3.888-4.536-6.912-8.532-15.228-11.988-24.948-3.24-9.936-5.616-21.168-7.128-33.696-10.368 5.184-18.792 10.692-25.272 16.524-4.968 4.32-8.64 8.64-11.016 12.96s-3.564 8.316-3.564 11.988c0 6.048 2.916 11.016 8.748 14.904 5.832 4.104 13.932 6.156 24.3 6.156z"/><path d="m189.808 333.44.797-.604-.418-.552-.663.197zm-67.392-.972.555-.832-.009-.006-.009-.006zm-3.888-34.668.81.587zm21.06-18.468-.521-.853-.008.004-.008.005zm12.636-7.128-.447-.894-.008.004-.009.004zm15.228-6.48.339.941.729-.263-.072-.771zm4.86-80.352.984.181v-.002zm19.44-69.012.939.346.872-2.37-2.258 1.13zm-44.064 28.512.628.778.007-.006zm-31.104 33.372-.841-.54-.006.009-.006.01zm-9.396-5.508.872.49.012-.021.011-.022zm9.396-12.96.753.659.002-.003zm33.696-28.836.558.83zm45.36-23.976.378.926.411-.168.152-.418zm12.636-29.808.899.4392.004-.01.005-.0101zm10.044-2.268-.768.6402.058.0698.07.0582zm1.296 7.452.919.3939.017-.0382.013-.0395zm-3.888 9.072-.919-.3939-.012.0284-.011.0292zm-3.24 9.072-.942-.336-.71 1.988 1.989-.71zm9.396-2.916.258.9662zm9.396-2.592-.225-.9744-.025.0058-.025.0071zm87.804 2.916.461-.8875zm24.948 23.976-.883.47.005.007zm-.324 75.816-.934-.357-.004.012zm-23.976 44.388.812.585.004-.006zm-39.528 41.796-.641-.767-.005.004zm-53.46 34.992.44.898.011-.006zm-30.132 12.636-.322-.947-1.486.507 1.087 1.133zm15.876 11.34.372-.928zm19.764 1.296.707.707.019-.018.018-.02zm7.452 5.832.447.894.014-.006.013-.008zm-7.776 2.592-.164-.986-.04.006-.038.01zm-38.556-24.948-.786.618.441.561.674-.235zm15.552-6.48-.389-.921-.022.009-.022.01zm17.172-8.748-.498-.867-.012.007zm60.588-47.304-.738-.675v.001zm36.288-53.784-.911-.412-.004.009zm-4.536-96.228-.733.68.007.007zm-87.156-13.284.229.973h.003zm-11.016 3.24.282.959.026-.007.025-.009zm-11.016 3.888-.381-.925-.399.165-.154.404zm-27.216 89.748.981.194v-.001zm-7.128 64.152-1 .012.017 1.388 1.311-.455zm34.02-8.748-.173-.985-.003.001zm45.36-2.916-.09.996.045.004h.045zm7.776.324-.083.997h.007zm-14.256 4.212-.076.997h.005zm-43.092 3.24.211.978zm-29.808 9.072-.383-.924-.647.269.031.7zm6.156 36.288-.942.335.002.007zm5.832 25.272.258.966 1.338-.357-.76-1.158zm-11.988-24.948-.951.31.005.013.004.012zm-7.128-33.696.993-.12-.17-1.409-1.27.635zm-25.272 16.524.656.755.007-.006.006-.006zm-11.016 12.96-.876-.482zm5.184 26.892.576-.818-.011-.007-.01-.007zm87.804 25.244c-12.558 0-23.847-6.469-33.871-19.692l-1.594 1.208c10.28 13.561 22.103 20.484 35.465 20.484zm-34.952-20.047c-13.755 4.084-26.293 6.115-37.624 6.115v2c11.566 0 24.299-2.073 38.193-6.197zm-37.624 6.115c-12.417 0-22.025-2.357-28.929-6.96l-1.109 1.664c7.351 4.901 17.399 7.296 30.038 7.296zm-28.947-6.972c-6.913-4.399-10.229-9.837-10.229-16.328h-2c0 7.333 3.813 13.343 11.155 18.016zm-10.229-16.328c0-5.116 2.15-10.745 6.614-16.909l-1.62-1.174c-4.608 6.364-6.994 12.399-6.994 18.083zm6.614-16.909c4.437-6.127 11.345-12.203 20.787-18.211l-1.074-1.688c-9.566 6.088-16.697 12.324-21.333 18.725zm20.772-18.202c3.867-2.363 8.059-4.728 12.578-7.095l-.928-1.772c-4.553 2.385-8.784 4.772-12.693 7.161zm12.561-7.087c4.715-2.357 9.754-4.501 15.12-6.433l-.678-1.882c-5.434 1.956-10.546 4.132-15.336 6.527zm15.777-7.467c-.645-6.878-.968-14.191-.968-21.939h-2c0 7.804.325 15.179.977 22.125zm-.968-21.939c0-17.64 1.936-37.019 5.816-58.139l-1.967-.362c-3.897 21.216-5.849 40.717-5.849 58.501zm5.816-58.141c3.876-21.317 10.339-44.265 19.395-68.845l-1.877-.692c-9.088 24.668-15.585 47.728-19.486 69.179zm18.009-70.085c-16.049 8.024-30.8 17.569-44.252 28.634l1.27 1.544c13.333-10.967 27.957-20.43 43.876-28.39zm-44.245 28.628c-13.454 10.85-23.902 22.051-31.317 33.61l1.683 1.08c7.273-11.337 17.561-22.384 30.89-33.134zm-31.329 33.629c-2.26 3.697-4.897 5.353-7.895 5.353v2c3.914 0 7.109-2.232 9.601-6.311zm-7.895 5.353c-1.034 0-1.625-.258-1.966-.598-.34-.34-.598-.932-.598-1.966h-2c0 1.342.336 2.532 1.184 3.38s2.038 1.184 3.38 1.184zm-2.564-2.564c0-1.443.845-3.832 2.788-7.286l-1.743-.98c-1.946 3.458-3.045 6.253-3.045 8.266zm2.811-7.329c1.671-3.342 4.737-7.587 9.254-12.748l-1.505-1.318c-4.556 5.207-7.753 9.602-9.538 13.172zm9.256-12.751c8.569-9.855 19.73-19.411 33.499-28.662l-1.115-1.66c-13.879 9.325-25.183 18.993-33.893 29.01zm33.499-28.662c13.764-9.248 28.823-17.208 45.18-23.88l-.755-1.852c-16.476 6.72-31.656 14.744-45.54 24.072zm45.743-24.466c3.659-10.1181 7.857-20.021 12.594-29.7088l-1.797-.8784c-4.768 9.7522-8.994 19.7212-12.678 29.9072zm12.603-29.7289c.596-1.2921 1.31-2.1911 2.108-2.7674.787-.5688 1.712-.8637 2.816-.8637v-2c-1.488 0-2.831.4071-3.987 1.2423-1.146.8277-2.053 2.0347-2.753 3.5506zm4.924-3.6311c1.44 0 2.559.5225 3.444 1.5842l1.536-1.2804c-1.275-1.5303-2.963-2.3038-4.98-2.3038zm3.572 1.7122c1.062.8847 1.584 2.0042 1.584 3.4438h2c0-2.0165-.773-3.705-2.304-4.9802zm1.584 3.4438c0 .7127-.181 1.6777-.596 2.9238l1.897.6324c.449-1.3459.699-2.541.699-3.5562zm-.567 2.8461c-.002.0059-.005.0118-.008.0177-.002.0059-.005.0118-.007.0177-.003.0059-.005.0118-.008.0177-.002.0059-.005.0118-.007.0177-.003.006-.005.0119-.008.0178-.002.0059-.005.0118-.007.0177-.003.0059-.006.0118-.008.0177-.003.0059-.005.0118-.008.0177-.002.0059-.005.0118-.007.0177-.003.0059-.005.0119-.008.0178-.002.0059-.005.0118-.007.0177-.003.0059-.006.0118-.008.0177-.003.0059-.005.0118-.008.0177-.002.0059-.005.0118-.007.0177-.003.0059-.005.0118-.008.0178-.002.0059-.005.0118-.007.0177-.003.0059-.005.0118-.008.0177s-.005.0118-.008.0177c-.002.0059-.005.0118-.007.0177-.003.0059-.005.0118-.008.0177-.002.006-.005.0119-.007.0178-.003.0059-.005.0118-.008.0177s-.005.0118-.008.0177c-.002.0059-.005.0118-.007.0177-.003.0059-.005.0118-.008.0177-.002.0059-.005.0119-.007.0178-.003.0059-.005.0118-.008.0177-.002.0059-.005.0118-.008.0177-.002.0059-.005.0118-.007.0177-.003.0059-.005.0118-.008.0177-.002.0059-.005.0118-.007.0178-.003.0059-.005.0118-.008.0177-.002.0059-.005.0118-.008.0177-.002.0059-.005.0118-.007.0177-.003.0059-.005.0118-.008.0177-.002.0059-.005.0118-.007.0177-.003.006-.005.0119-.008.0178-.002.0059-.005.0118-.007.0177-.003.0059-.006.0118-.008.0177-.003.0059-.005.0118-.008.0177-.002.0059-.005.0118-.007.0177-.003.0059-.005.0119-.008.0178-.002.0059-.005.0118-.007.0177-.003.0059-.006.0118-.008.0177-.003.0059-.005.0118-.008.0177-.002.0059-.005.0118-.007.0177-.003.0059-.005.0118-.008.0178-.002.0059-.005.0118-.007.0177-.003.0059-.005.0118-.008.0177s-.005.0118-.008.0177c-.002.0059-.005.0118-.007.0177-.003.0059-.005.0118-.008.0177-.002.006-.005.0119-.007.0178-.003.0059-.005.0118-.008.0177s-.005.0118-.008.0177c-.002.0059-.005.0118-.007.0177-.003.0059-.005.0118-.008.0177-.002.0059-.005.0119-.007.0178-.003.0059-.005.0118-.008.0177-.002.0059-.005.0118-.008.0177-.002.0059-.005.0118-.007.0177-.003.0059-.005.0118-.008.0177-.002.0059-.005.0118-.007.0178-.003.0059-.005.0118-.008.0177-.002.0059-.005.0118-.008.0177-.002.0059-.005.0118-.007.0177-.003.0059-.005.0118-.008.0177-.002.0059-.005.0118-.007.0177-.003.006-.005.0119-.008.0178-.002.0059-.005.0118-.007.0177-.003.0059-.006.0118-.008.0177-.003.0059-.005.0118-.008.0177-.002.0059-.005.0118-.007.0177-.003.0059-.005.0119-.008.0178-.002.0059-.005.0118-.007.0177-.003.0059-.006.0118-.008.0177-.003.0059-.005.0118-.008.0177-.002.0059-.005.0118-.007.0177-.003.0059-.005.0118-.008.0178-.002.0059-.005.0118-.007.0177-.003.0059-.005.0118-.008.0177s-.005.0118-.008.0177c-.002.0059-.005.0118-.007.0177-.003.0059-.005.0118-.008.0177-.002.006-.005.0119-.007.0178-.003.0059-.005.0118-.008.0177s-.005.0118-.008.0177c-.002.0059-.005.0118-.007.0177-.003.0059-.005.0118-.008.0177-.002.0059-.005.0119-.007.0178-.003.0059-.005.0118-.008.0177-.002.0059-.005.0118-.008.0177-.002.0059-.005.0118-.007.0177-.003.0059-.005.0118-.008.0177-.002.0059-.005.0118-.007.0178-.003.0059-.005.0118-.008.0177-.002.0059-.005.0118-.008.0177-.002.0059-.005.0118-.007.0177-.003.0059-.005.0118-.008.0177-.002.0059-.005.0118-.007.0177-.003.006-.005.0119-.008.0178-.002.0059-.005.0118-.007.0177-.003.0059-.006.0118-.008.0177-.003.0059-.005.0118-.008.0177-.002.0059-.005.0118-.007.0177-.003.0059-.005.0119-.008.0178-.002.0059-.005.0118-.007.0177-.003.0059-.006.0118-.008.0177-.003.0059-.005.0118-.008.0177-.002.0059-.005.0118-.007.0177-.003.0059-.005.0118-.008.0178-.002.0059-.005.0118-.007.0177-.003.0059-.005.0118-.008.0177s-.005.0118-.008.0177c-.002.0059-.005.0118-.007.0177-.003.0059-.005.0118-.008.0177-.002.006-.005.0119-.007.0178-.003.0059-.005.0118-.008.0177s-.005.0118-.008.0177c-.002.0059-.005.0118-.007.0177-.003.0059-.005.0118-.008.0177-.002.0059-.005.0119-.007.0178-.003.0059-.005.0118-.008.0177-.002.0059-.005.0118-.008.0177-.002.0059-.005.0118-.007.0177-.003.0059-.005.0118-.008.0177-.002.0059-.005.0118-.007.0178-.003.0059-.005.0118-.008.0177-.002.0059-.005.0118-.008.0177-.002.0059-.005.0118-.007.0177-.003.0059-.005.0118-.008.0177-.002.0059-.005.0118-.007.0177-.003.006-.005.0119-.008.0178-.002.0059-.005.0118-.007.0177-.003.0059-.006.0118-.008.0177-.003.0059-.005.0118-.008.0177-.002.0059-.005.0118-.007.0177-.003.0059-.005.0119-.008.0178-.002.0059-.005.0118-.007.0177-.003.0059-.006.0118-.008.0177-.003.0059-.005.0118-.008.0177-.002.0059-.005.0118-.007.0177-.003.0059-.005.0118-.008.0178-.002.0059-.005.0118-.007.0177-.003.0059-.005.0118-.008.0177s-.005.0118-.008.0177c-.002.0059-.005.0118-.007.0177-.003.0059-.005.0118-.008.0177-.002.006-.005.0119-.007.0178-.003.0059-.005.0118-.008.0177s-.005.0118-.008.0177c-.002.0059-.005.0118-.007.0177-.003.0059-.005.0118-.008.0177-.002.0059-.005.0119-.007.0178-.003.0059-.005.0118-.008.0177-.002.0059-.005.0118-.008.0177-.002.0059-.005.0118-.007.0177-.003.0059-.005.0118-.008.0177-.002.0059-.005.0118-.007.0178-.003.0059-.005.0118-.008.0177-.002.0059-.005.0118-.008.0177-.002.0059-.005.0118-.007.0177-.003.0059-.005.0118-.008.0177-.002.0059-.005.0118-.007.0177-.003.006-.005.0119-.008.0178-.002.0059-.005.0118-.007.0177-.003.0059-.006.0118-.008.0177-.003.0059-.005.0118-.008.0177-.002.0059-.005.0118-.007.0177-.003.0059-.005.0119-.008.0178-.002.0059-.005.0118-.007.0177-.003.0059-.006.0118-.008.0177-.003.0059-.005.0118-.008.0177-.002.0059-.005.0118-.007.0177-.003.0059-.005.0118-.008.0178-.002.0059-.005.0118-.007.0177-.003.0059-.005.0118-.008.0177s-.005.0118-.008.0177c-.002.0059-.005.0118-.007.0177-.003.0059-.005.0118-.008.0177-.002.006-.005.0119-.007.0178-.003.0059-.005.0118-.008.0177s-.005.0118-.008.0177c-.002.0059-.005.0118-.007.0177-.003.0059-.005.0118-.008.0177-.002.0059-.005.0119-.007.0178-.003.0059-.005.0118-.008.0177-.002.0059-.005.0118-.008.0177-.002.0059-.005.0118-.007.0177-.003.0059-.005.0118-.008.0177-.002.0059-.005.0118-.007.0178-.003.0059-.005.0118-.008.0177-.002.0059-.005.0118-.008.0177-.002.0059-.005.0118-.007.0177-.003.0059-.005.0118-.008.0177-.002.0059-.005.0118-.007.0177-.003.006-.005.0119-.008.0178-.002.0059-.005.0118-.007.0177-.003.0059-.006.0118-.008.0177-.003.0059-.005.0118-.008.0177-.002.0059-.005.0118-.007.0177-.003.0059-.005.0119-.008.0178-.002.0059-.005.0118-.007.0177-.003.0059-.006.0118-.008.0177-.003.0059-.005.0118-.008.0177-.002.0059-.005.0118-.007.0177-.003.0059-.005.0118-.008.0178-.002.0059-.005.0118-.007.0177-.003.0059-.005.0118-.008.0177s-.005.0118-.008.0177c-.002.0059-.005.0118-.007.0177-.003.0059-.005.0118-.008.0177-.002.006-.005.0119-.007.0178-.003.0059-.005.0118-.008.0177s-.005.0118-.008.0177c-.002.0059-.005.0118-.007.0177-.003.0059-.005.0118-.008.0177-.002.0059-.005.0119-.007.0178-.003.0059-.005.0118-.008.0177-.002.0059-.005.0118-.008.0177-.002.0059-.005.0118-.007.0177-.003.0059-.005.0118-.008.0177-.002.0059-.005.0118-.007.0178-.003.0059-.005.0118-.008.0177-.002.0059-.005.0118-.008.0177-.002.0059-.005.0118-.007.0177-.003.0059-.005.0118-.008.0177-.002.0059-.005.0118-.007.0177-.003.006-.005.0119-.008.0178-.002.0059-.005.0118-.007.0177-.003.0059-.006.0118-.008.0177-.003.0059-.005.0118-.008.0177-.002.0059-.005.0118-.007.0177-.003.0059-.005.0119-.008.0178-.002.0059-.005.0118-.007.0177-.003.0059-.006.0118-.008.0177-.003.0059-.005.0118-.008.0177-.002.0059-.005.0118-.007.0177-.003.0059-.005.0118-.008.0177-.002.006-.005.0119-.007.0178-.003.0059-.005.0118-.008.0177s-.005.0118-.008.0177c-.002.0059-.005.0118-.007.0177-.003.0059-.005.0118-.008.0177-.002.0059-.005.0119-.007.0178-.003.0059-.005.0118-.008.0177s-.005.0118-.008.0177c-.002.0059-.005.0118-.007.0177-.003.0059-.005.0118-.008.0177-.002.0059-.005.0118-.007.0178-.003.0059-.005.0118-.008.0177-.002.0059-.005.0118-.008.0177-.002.0059-.005.0118-.007.0177-.003.0059-.005.0118-.008.0177-.002.0059-.005.0118-.007.0177-.003.006-.005.0119-.008.0178-.002.0059-.005.0118-.008.0177-.002.0059-.005.0118-.007.0177-.003.0059-.005.0118-.008.0177-.002.0059-.005.0118-.007.0177-.003.0059-.005.0119-.008.0178-.002.0059-.005.0118-.007.0177-.003.0059-.006.0118-.008.0177-.003.0059-.005.0118-.008.0177-.002.0059-.005.0118-.007.0177-.003.0059-.005.0118-.008.0178-.002.0059-.005.0118-.007.0177-.003.0059-.006.0118-.008.0177-.003.0059-.005.0118-.008.0177-.002.0059-.005.0118-.007.0177-.003.0059-.005.0118-.008.0177-.002.006-.005.0119-.007.0178-.003.0059-.005.0118-.008.0177s-.005.0118-.008.0177c-.002.0059-.005.0118-.007.0177-.003.0059-.005.0118-.008.0177-.002.0059-.005.0119-.007.0178-.003.0059-.005.0118-.008.0177s-.005.0118-.008.0177c-.002.0059-.005.0118-.007.0177-.003.0059-.005.0118-.008.0177-.002.0059-.005.0118-.007.0178-.003.0059-.005.0118-.008.0177-.002.0059-.005.0118-.008.0177-.002.0059-.005.0118-.007.0177-.003.0059-.005.0118-.008.0177-.002.0059-.005.0118-.007.0177-.003.006-.005.0119-.008.0178-.002.0059-.005.0118-.008.0177-.002.0059-.005.0118-.007.0177-.003.0059-.005.0118-.008.0177-.002.0059-.005.0118-.007.0177-.003.0059-.005.0119-.008.0178-.002.0059-.005.0118-.007.0177-.003.0059-.006.0118-.008.0177-.003.0059-.005.0118-.008.0177-.002.0059-.005.0118-.007.0177-.003.0059-.005.0118-.008.0178-.002.0059-.005.0118-.007.0177-.003.0059-.006.0118-.008.0177-.003.0059-.005.0118-.008.0177-.002.0059-.005.0118-.007.0177-.003.0059-.005.0118-.008.0177-.002.006-.005.0119-.007.0178-.003.0059-.005.0118-.008.0177s-.005.0118-.008.0177c-.002.0059-.005.0118-.007.0177-.003.0059-.005.0118-.008.0177-.002.0059-.005.0119-.007.0178-.003.0059-.005.0118-.008.0177s-.005.0118-.008.0177c-.002.0059-.005.0118-.007.0177-.003.0059-.005.0118-.008.0177-.002.0059-.005.0118-.007.0178-.003.0059-.005.0118-.008.0177-.002.0059-.005.0118-.008.0177-.002.0059-.005.0118-.007.0177-.003.0059-.005.0118-.008.0177-.002.0059-.005.0118-.007.0177-.003.006-.005.0119-.008.0178-.002.0059-.005.0118-.008.0177-.002.0059-.005.0118-.007.0177-.003.0059-.005.0118-.008.0177-.002.0059-.005.0118-.007.0177-.003.0059-.005.0119-.008.0178-.002.0059-.005.0118-.007.0177-.003.0059-.006.0118-.008.0177-.003.0059-.005.0118-.008.0177-.002.0059-.005.0118-.007.0177-.003.0059-.005.0118-.008.0178-.002.0059-.005.0118-.007.0177-.003.0059-.006.0118-.008.0177-.003.0059-.005.0118-.008.0177-.002.0059-.005.0118-.007.0177-.003.0059-.005.0118-.008.0177-.002.006-.005.0119-.007.0178-.003.0059-.005.0118-.008.0177s-.005.0118-.008.0177c-.002.0059-.005.0118-.007.0177-.003.0059-.005.0118-.008.0177-.002.0059-.005.0119-.007.0178-.003.0059-.005.0118-.008.0177s-.005.0118-.008.0177c-.002.0059-.005.0118-.007.0177-.003.0059-.005.0118-.008.0177-.002.0059-.005.0118-.007.0178-.003.0059-.005.0118-.008.0177-.002.0059-.005.0118-.008.0177-.002.0059-.005.0118-.007.0177-.003.0059-.005.0118-.008.0177-.002.0059-.005.0118-.007.0177-.003.006-.005.0119-.008.0178-.002.0059-.005.0118-.008.0177-.002.0059-.005.0118-.007.0177-.003.0059-.005.0118-.008.0177-.002.0059-.005.0118-.007.0177-.003.0059-.005.0119-.008.0178-.002.0059-.005.0118-.007.0177-.003.0059-.006.0118-.008.0177-.003.0059-.005.0118-.008.0177-.002.0059-.005.0118-.007.0177-.003.0059-.005.0118-.008.0178-.002.0059-.005.0118-.007.0177-.003.0059-.006.0118-.008.0177-.003.0059-.005.0118-.008.0177-.002.0059-.005.0118-.007.0177-.003.0059-.005.0118-.008.0177-.002.006-.005.0119-.007.0178-.003.0059-.005.0118-.008.0177s-.005.0118-.008.0177c-.002.0059-.005.0118-.007.0177-.003.0059-.005.0118-.008.0177-.002.0059-.005.0119-.007.0178-.003.0059-.005.0118-.008.0177s-.005.0118-.008.0177c-.002.0059-.005.0118-.007.0177-.003.0059-.005.0118-.008.0177-.002.0059-.005.0118-.007.0178-.003.0059-.005.0118-.008.0177-.002.0059-.005.0118-.008.0177-.002.0059-.005.0118-.007.0177-.003.0059-.005.0118-.008.0177-.002.0059-.005.0118-.007.0177-.003.006-.005.0119-.008.0178-.002.0059-.005.0118-.008.0177-.002.0059-.005.0118-.007.0177-.003.0059-.005.0118-.008.0177-.002.0059-.005.0118-.007.0177-.003.0059-.005.0119-.008.0178-.002.0059-.005.0118-.007.0177-.003.0059-.006.0118-.008.0177-.003.0059-.005.0118-.008.0177-.002.0059-.005.0118-.007.0177-.003.0059-.005.0118-.008.0178-.002.0059-.005.0118-.007.0177-.003.0059-.006.0118-.008.0177-.003.0059-.005.0118-.008.0177-.002.0059-.005.0118-.007.0177-.003.0059-.005.0118-.008.0177-.002.006-.005.0119-.007.0178-.003.0059-.005.0118-.008.0177s-.005.0118-.008.0177c-.002.0059-.005.0118-.007.0177-.003.0059-.005.0118-.008.0177-.002.0059-.005.0119-.007.0178-.003.0059-.005.0118-.008.0177s-.005.0118-.008.0177c-.002.0059-.005.0118-.007.0177-.003.0059-.005.0118-.008.0177-.002.0059-.005.0118-.007.0178-.003.0059-.005.0118-.008.0177-.002.0059-.005.0118-.008.0177-.002.0059-.005.0118-.007.0177-.003.0059-.005.0118-.008.0177-.002.0059-.005.0118-.007.0177-.003.006-.005.0119-.008.0178-.002.0059-.005.0118-.008.0177-.002.0059-.005.0118-.007.0177-.003.0059-.005.0118-.008.0177-.002.0059-.005.0118-.007.0177-.003.0059-.005.0119-.008.0178-.002.0059-.005.0118-.007.0177-.003.0059-.006.0118-.008.0177-.003.0059-.005.0118-.008.0177-.002.0059-.005.0118-.007.0177-.003.0059-.005.0118-.008.0178-.002.0059-.005.0118-.007.0177-.003.0059-.006.0118-.008.0177-.003.0059-.005.0118-.008.0177-.002.0059-.005.0118-.007.0177-.003.0059-.005.0118-.008.0177-.002.006-.005.0119-.007.0178-.003.0059-.005.0118-.008.0177s-.005.0118-.008.0177c-.002.0059-.005.0118-.007.0177-.003.0059-.005.0118-.008.0177-.002.0059-.005.0119-.007.0178-.003.0059-.005.0118-.008.0177s-.005.0118-.008.0177c-.002.0059-.005.0118-.007.0177-.003.0059-.005.0118-.008.0177-.002.0059-.005.0118-.007.0178-.003.0059-.005.0118-.008.0177s-.005.0118-.008.0177c-.002.0059-.005.0118-.007.0177-.003.0059-.005.0118-.008.0177-.002.0059-.005.0118-.007.0177-.003.006-.005.0119-.008.0178-.002.0059-.005.0118-.008.0177-.002.0059-.005.0118-.007.0177-.003.0059-.005.0118-.008.0177-.002.0059-.005.0118-.007.0177-.003.0059-.005.0119-.008.0178-.002.0059-.005.0118-.008.0177-.002.0059-.005.0118-.007.0177-.003.0059-.005.0118-.008.0177-.002.0059-.005.0118-.007.0177-.003.0059-.005.0118-.008.0178-.002.0059-.005.0118-.007.0177-.003.0059-.006.0118-.008.0177-.003.0059-.005.0118-.008.0177-.002.0059-.005.0118-.007.0177-.003.0059-.005.0118-.008.0177-.002.006-.005.0119-.007.0178-.003.0059-.006.0118-.008.0177-.003.0059-.005.0118-.008.0177-.002.0059-.005.0118-.007.0177-.003.0059-.005.0118-.008.0177-.002.0059-.005.0119-.007.0178-.003.0059-.005.0118-.008.0177s-.005.0118-.008.0177c-.002.0059-.005.0118-.007.0177-.003.0059-.005.0118-.008.0177-.002.0059-.005.0118-.007.0178-.003.0059-.005.0118-.008.0177s-.005.0118-.008.0177c-.002.0059-.005.0118-.007.0177-.003.0059-.005.0118-.008.0177-.002.0059-.005.0118-.007.0177-.003.006-.005.0119-.008.0178-.002.0059-.005.0118-.008.0177-.002.0059-.005.0118-.007.0177-.003.0059-.005.0118-.008.0177-.002.0059-.005.0118-.007.0177-.003.0059-.005.0119-.008.0178-.002.0059-.005.0118-.008.0177-.002.0059-.005.0118-.007.0177-.003.0059-.005.0118-.008.0177-.002.0059-.005.0118-.007.0177-.003.0059-.005.0118-.008.0178-.002.0059-.005.0118-.007.0177-.003.0059-.006.0118-.008.0177-.003.0059-.005.0118-.008.0177-.002.0059-.005.0118-.007.0177-.003.0059-.005.0118-.008.0177-.002.006-.005.0119-.007.0178-.003.0059-.006.0118-.008.0177-.003.0059-.005.0118-.008.0177-.002.0059-.005.0118-.007.0177-.003.0059-.005.0118-.008.0177-.002.0059-.005.0119-.007.0178-.003.0059-.005.0118-.008.0177s-.005.0118-.008.0177c-.002.0059-.005.0118-.007.0177-.003.0059-.005.0118-.008.0177-.002.0059-.005.0118-.007.0178-.003.0059-.005.0118-.008.0177s-.005.0118-.008.0177c-.002.0059-.005.0118-.007.0177-.003.0059-.005.0118-.008.0177-.002.0059-.005.0118-.007.0177-.003.006-.005.0119-.008.0178l1.838.7878c.003-.0059.005-.0118.008-.0177.002-.0059.005-.0118.008-.0177.002-.0059.005-.0118.007-.0177.003-.006.005-.0119.008-.0178.002-.0059.005-.0118.007-.0177.003-.0059.005-.0118.008-.0177.002-.0059.005-.0118.008-.0177.002-.0059.005-.0118.007-.0177.003-.0059.005-.0119.008-.0178.002-.0059.005-.0118.007-.0177.003-.0059.005-.0118.008-.0177.002-.0059.005-.0118.007-.0177.003-.0059.006-.0118.008-.0177.003-.0059.005-.0118.008-.0178.002-.0059.005-.0118.007-.0177.003-.0059.005-.0118.008-.0177.002-.0059.005-.0118.007-.0177.003-.0059.006-.0118.008-.0177.003-.0059.005-.0118.008-.0177.002-.006.005-.0119.007-.0178.003-.0059.005-.0118.008-.0177.002-.0059.005-.0118.007-.0177.003-.0059.005-.0118.008-.0177s.005-.0118.008-.0177c.002-.0059.005-.0119.007-.0178.003-.0059.005-.0118.008-.0177.002-.0059.005-.0118.007-.0177.003-.0059.005-.0118.008-.0177s.005-.0118.008-.0177c.002-.0059.005-.0118.007-.0178.003-.0059.005-.0118.008-.0177.002-.0059.005-.0118.007-.0177.003-.0059.005-.0118.008-.0177.002-.0059.005-.0118.008-.0177.002-.0059.005-.0118.007-.0177.003-.006.005-.0119.008-.0178.002-.0059.005-.0118.007-.0177.003-.0059.005-.0118.008-.0177.002-.0059.005-.0118.008-.0177.002-.0059.005-.0118.007-.0177.003-.0059.005-.0119.008-.0178.002-.0059.005-.0118.007-.0177.003-.0059.005-.0118.008-.0177.002-.0059.005-.0118.007-.0177.003-.0059.006-.0118.008-.0177.003-.0059.005-.0118.008-.0178.002-.0059.005-.0118.007-.0177.003-.0059.005-.0118.008-.0177.002-.0059.005-.0118.007-.0177.003-.0059.006-.0118.008-.0177.003-.0059.005-.0118.008-.0177.002-.006.005-.0119.007-.0178.003-.0059.005-.0118.008-.0177.002-.0059.005-.0118.007-.0177.003-.0059.005-.0118.008-.0177s.005-.0118.008-.0177c.002-.0059.005-.0119.007-.0178.003-.0059.005-.0118.008-.0177.002-.0059.005-.0118.007-.0177.003-.0059.005-.0118.008-.0177s.005-.0118.008-.0177c.002-.0059.005-.0118.007-.0178.003-.0059.005-.0118.008-.0177.002-.0059.005-.0118.007-.0177.003-.0059.005-.0118.008-.0177.002-.0059.005-.0118.008-.0177.002-.0059.005-.0118.007-.0177.003-.006.005-.0119.008-.0178.002-.0059.005-.0118.007-.0177.003-.0059.005-.0118.008-.0177.002-.0059.005-.0118.008-.0177.002-.0059.005-.0118.007-.0177.003-.0059.005-.0119.008-.0178.002-.0059.005-.0118.007-.0177.003-.0059.005-.0118.008-.0177.002-.0059.005-.0118.007-.0177.003-.0059.006-.0118.008-.0177.003-.0059.005-.0118.008-.0178.002-.0059.005-.0118.007-.0177.003-.0059.005-.0118.008-.0177.002-.0059.005-.0118.007-.0177.003-.0059.006-.0118.008-.0177.003-.0059.005-.0118.008-.0177.002-.006.005-.0119.007-.0178.003-.0059.005-.0118.008-.0177.002-.0059.005-.0118.007-.0177.003-.0059.005-.0118.008-.0177s.005-.0118.008-.0177c.002-.0059.005-.0119.007-.0178.003-.0059.005-.0118.008-.0177.002-.0059.005-.0118.007-.0177.003-.0059.005-.0118.008-.0177s.005-.0118.008-.0177c.002-.0059.005-.0118.007-.0178.003-.0059.005-.0118.008-.0177.002-.0059.005-.0118.007-.0177.003-.0059.005-.0118.008-.0177.002-.0059.005-.0118.008-.0177.002-.0059.005-.0118.007-.0177.003-.006.005-.0119.008-.0178.002-.0059.005-.0118.007-.0177.003-.0059.005-.0118.008-.0177.002-.0059.005-.0118.008-.0177.002-.0059.005-.0118.007-.0177.003-.0059.005-.0119.008-.0178.002-.0059.005-.0118.007-.0177.003-.0059.005-.0118.008-.0177.002-.0059.005-.0118.007-.0177.003-.0059.006-.0118.008-.0177.003-.0059.005-.0118.008-.0178.002-.0059.005-.0118.007-.0177.003-.0059.005-.0118.008-.0177.002-.0059.005-.0118.007-.0177.003-.0059.006-.0118.008-.0177.003-.0059.005-.0118.008-.0177.002-.006.005-.0119.007-.0178.003-.0059.005-.0118.008-.0177.002-.0059.005-.0118.007-.0177.003-.0059.005-.0118.008-.0177s.005-.0118.008-.0177c.002-.0059.005-.0119.007-.0178.003-.0059.005-.0118.008-.0177.002-.0059.005-.0118.007-.0177.003-.0059.005-.0118.008-.0177s.005-.0118.008-.0177c.002-.0059.005-.0118.007-.0178.003-.0059.005-.0118.008-.0177.002-.0059.005-.0118.007-.0177.003-.0059.005-.0118.008-.0177.002-.0059.005-.0118.008-.0177.002-.0059.005-.0118.007-.0177.003-.006.005-.0119.008-.0178.002-.0059.005-.0118.007-.0177.003-.0059.005-.0118.008-.0177.002-.0059.005-.0118.008-.0177.002-.0059.005-.0118.007-.0177.003-.0059.005-.0119.008-.0178.002-.0059.005-.0118.007-.0177.003-.0059.005-.0118.008-.0177.002-.0059.005-.0118.007-.0177.003-.0059.006-.0118.008-.0177.003-.0059.005-.0118.008-.0178.002-.0059.005-.0118.007-.0177.003-.0059.005-.0118.008-.0177.002-.0059.005-.0118.007-.0177.003-.0059.006-.0118.008-.0177.003-.0059.005-.0118.008-.0177.002-.006.005-.0119.007-.0178.003-.0059.005-.0118.008-.0177.002-.0059.005-.0118.007-.0177.003-.0059.005-.0118.008-.0177s.005-.0118.008-.0177c.002-.0059.005-.0119.007-.0178.003-.0059.005-.0118.008-.0177.002-.0059.005-.0118.007-.0177.003-.0059.005-.0118.008-.0177s.005-.0118.008-.0177c.002-.0059.005-.0118.007-.0178.003-.0059.005-.0118.008-.0177.002-.0059.005-.0118.007-.0177.003-.0059.005-.0118.008-.0177.002-.0059.005-.0118.008-.0177.002-.0059.005-.0118.007-.0177.003-.006.005-.0119.008-.0178.002-.0059.005-.0118.007-.0177.003-.0059.005-.0118.008-.0177.002-.0059.005-.0118.008-.0177.002-.0059.005-.0118.007-.0177.003-.0059.005-.0119.008-.0178.002-.0059.005-.0118.007-.0177.003-.0059.005-.0118.008-.0177.002-.0059.005-.0118.007-.0177.003-.0059.006-.0118.008-.0177.003-.0059.005-.0118.008-.0178.002-.0059.005-.0118.007-.0177.003-.0059.005-.0118.008-.0177.002-.0059.005-.0118.007-.0177.003-.0059.006-.0118.008-.0177.003-.0059.005-.0118.008-.0177.002-.006.005-.0119.007-.0178.003-.0059.005-.0118.008-.0177.002-.0059.005-.0118.007-.0177.003-.0059.005-.0118.008-.0177s.005-.0118.008-.0177c.002-.0059.005-.0119.007-.0178.003-.0059.005-.0118.008-.0177.002-.0059.005-.0118.007-.0177.003-.0059.005-.0118.008-.0177s.005-.0118.008-.0177c.002-.0059.005-.0118.007-.0178.003-.0059.005-.0118.008-.0177.002-.0059.005-.0118.007-.0177.003-.0059.005-.0118.008-.0177.002-.0059.005-.0118.008-.0177.002-.0059.005-.0118.007-.0177.003-.006.005-.0119.008-.0178.002-.0059.005-.0118.007-.0177.003-.0059.005-.0118.008-.0177.002-.0059.005-.0118.008-.0177.002-.0059.005-.0118.007-.0177.003-.0059.005-.0119.008-.0178.002-.0059.005-.0118.007-.0177.003-.0059.005-.0118.008-.0177.002-.0059.005-.0118.007-.0177.003-.0059.006-.0118.008-.0177.003-.0059.005-.0118.008-.0178.002-.0059.005-.0118.007-.0177.003-.0059.005-.0118.008-.0177.002-.0059.005-.0118.007-.0177.003-.0059.006-.0118.008-.0177.003-.0059.005-.0118.008-.0177.002-.006.005-.0119.007-.0178.003-.0059.005-.0118.008-.0177.002-.0059.005-.0118.007-.0177.003-.0059.005-.0118.008-.0177s.005-.0118.008-.0177c.002-.0059.005-.0119.007-.0178.003-.0059.005-.0118.008-.0177.002-.0059.005-.0118.007-.0177.003-.0059.005-.0118.008-.0177s.005-.0118.008-.0177c.002-.0059.005-.0118.007-.0178.003-.0059.005-.0118.008-.0177.002-.0059.005-.0118.007-.0177.003-.0059.005-.0118.008-.0177.002-.0059.005-.0118.008-.0177.002-.0059.005-.0118.007-.0177.003-.006.005-.0119.008-.0178.002-.0059.005-.0118.007-.0177.003-.0059.005-.0118.008-.0177.002-.0059.005-.0118.008-.0177.002-.0059.005-.0118.007-.0177.003-.0059.005-.0119.008-.0178.002-.0059.005-.0118.007-.0177.003-.0059.005-.0118.008-.0177.002-.0059.005-.0118.007-.0177.003-.0059.006-.0118.008-.0177.003-.0059.005-.0118.008-.0178.002-.0059.005-.0118.007-.0177.003-.0059.005-.0118.008-.0177.002-.0059.005-.0118.007-.0177.003-.0059.006-.0118.008-.0177.003-.0059.005-.0118.008-.0177.002-.006.005-.0119.007-.0178.003-.0059.005-.0118.008-.0177.002-.0059.005-.0118.007-.0177.003-.0059.005-.0118.008-.0177s.005-.0118.008-.0177c.002-.0059.005-.0119.007-.0178.003-.0059.005-.0118.008-.0177.002-.0059.005-.0118.007-.0177.003-.0059.005-.0118.008-.0177s.005-.0118.008-.0177c.002-.0059.005-.0118.007-.0178.003-.0059.005-.0118.008-.0177.002-.0059.005-.0118.007-.0177.003-.0059.005-.0118.008-.0177.002-.0059.005-.0118.008-.0177.002-.0059.005-.0118.007-.0177.003-.006.005-.0119.008-.0178.002-.0059.005-.0118.007-.0177.003-.0059.005-.0118.008-.0177.002-.0059.005-.0118.008-.0177.002-.0059.005-.0118.007-.0177.003-.0059.005-.0119.008-.0178.002-.0059.005-.0118.007-.0177.003-.0059.005-.0118.008-.0177.002-.0059.005-.0118.007-.0177.003-.0059.006-.0118.008-.0177.003-.0059.005-.0118.008-.0178.002-.0059.005-.0118.007-.0177.003-.0059.005-.0118.008-.0177.002-.0059.005-.0118.007-.0177.003-.0059.006-.0118.008-.0177.003-.0059.005-.0118.008-.0177.002-.006.005-.0119.007-.0178.003-.0059.005-.0118.008-.0177.002-.0059.005-.0118.007-.0177.003-.0059.005-.0118.008-.0177s.005-.0118.008-.0177c.002-.0059.005-.0119.007-.0178.003-.0059.005-.0118.008-.0177.002-.0059.005-.0118.007-.0177.003-.0059.005-.0118.008-.0177s.005-.0118.008-.0177c.002-.0059.005-.0118.007-.0178.003-.0059.005-.0118.008-.0177.002-.0059.005-.0118.007-.0177.003-.0059.005-.0118.008-.0177.002-.0059.005-.0118.008-.0177.002-.0059.005-.0118.007-.0177.003-.006.005-.0119.008-.0178.002-.0059.005-.0118.007-.0177.003-.0059.005-.0118.008-.0177.002-.0059.005-.0118.008-.0177.002-.0059.005-.0118.007-.0177.003-.0059.005-.0119.008-.0178.002-.0059.005-.0118.007-.0177.003-.0059.005-.0118.008-.0177.002-.0059.005-.0118.007-.0177.003-.0059.006-.0118.008-.0177.003-.0059.005-.0118.008-.0178.002-.0059.005-.0118.007-.0177.003-.0059.005-.0118.008-.0177.002-.0059.005-.0118.007-.0177.003-.0059.006-.0118.008-.0177.003-.0059.005-.0118.008-.0177.002-.006.005-.0119.007-.0178.003-.0059.005-.0118.008-.0177.002-.0059.005-.0118.007-.0177.003-.0059.005-.0118.008-.0177s.005-.0118.008-.0177c.002-.0059.005-.0119.007-.0178.003-.0059.005-.0118.008-.0177.002-.0059.005-.0118.007-.0177.003-.0059.005-.0118.008-.0177s.005-.0118.008-.0177c.002-.0059.005-.0118.007-.0178.003-.0059.005-.0118.008-.0177.002-.0059.005-.0118.007-.0177.003-.0059.005-.0118.008-.0177.002-.0059.005-.0118.008-.0177.002-.0059.005-.0118.007-.0177.003-.006.005-.0119.008-.0178.002-.0059.005-.0118.007-.0177.003-.0059.005-.0118.008-.0177.002-.0059.005-.0118.008-.0177.002-.0059.005-.0118.007-.0177.003-.0059.005-.0119.008-.0178.002-.0059.005-.0118.007-.0177.003-.0059.005-.0118.008-.0177.002-.0059.005-.0118.007-.0177.003-.0059.006-.0118.008-.0177.003-.0059.005-.0118.008-.0178.002-.0059.005-.0118.007-.0177.003-.0059.005-.0118.008-.0177.002-.0059.005-.0118.007-.0177.003-.0059.006-.0118.008-.0177.003-.0059.005-.0118.008-.0177.002-.006.005-.0119.007-.0178.003-.0059.005-.0118.008-.0177.002-.0059.005-.0118.007-.0177.003-.0059.005-.0118.008-.0177s.005-.0118.008-.0177c.002-.0059.005-.0119.007-.0178.003-.0059.005-.0118.008-.0177.002-.0059.005-.0118.007-.0177.003-.0059.005-.0118.008-.0177s.005-.0118.008-.0177c.002-.0059.005-.0118.007-.0178.003-.0059.005-.0118.008-.0177.002-.0059.005-.0118.007-.0177.003-.0059.005-.0118.008-.0177.002-.0059.005-.0118.008-.0177.002-.0059.005-.0118.007-.0177.003-.006.005-.0119.008-.0178.002-.0059.005-.0118.007-.0177.003-.0059.005-.0118.008-.0177.002-.0059.005-.0118.008-.0177.002-.0059.005-.0118.007-.0177.003-.0059.005-.0119.008-.0178.002-.0059.005-.0118.007-.0177.003-.0059.005-.0118.008-.0177.002-.0059.005-.0118.007-.0177.003-.0059.006-.0118.008-.0177.003-.0059.005-.0118.008-.0178.002-.0059.005-.0118.007-.0177.003-.0059.005-.0118.008-.0177.002-.0059.005-.0118.007-.0177.003-.0059.006-.0118.008-.0177.003-.0059.005-.0118.008-.0177.002-.006.005-.0119.007-.0178.003-.0059.005-.0118.008-.0177.002-.0059.005-.0118.007-.0177.003-.0059.005-.0118.008-.0177s.005-.0118.008-.0177c.002-.0059.005-.0119.007-.0178.003-.0059.005-.0118.008-.0177.002-.0059.005-.0118.007-.0177.003-.0059.005-.0118.008-.0177s.005-.0118.008-.0177c.002-.0059.005-.0118.007-.0178.003-.0059.005-.0118.008-.0177.002-.0059.005-.0118.007-.0177.003-.0059.005-.0118.008-.0177.002-.0059.005-.0118.008-.0177.002-.0059.005-.0118.007-.0177.003-.006.005-.0119.008-.0178.002-.0059.005-.0118.007-.0177.003-.0059.005-.0118.008-.0177.002-.0059.005-.0118.008-.0177.002-.0059.005-.0118.007-.0177.003-.0059.005-.0119.008-.0178.002-.0059.005-.0118.007-.0177.003-.0059.005-.0118.008-.0177.002-.0059.005-.0118.007-.0177.003-.0059.006-.0118.008-.0177.003-.0059.005-.0118.008-.0178.002-.0059.005-.0118.007-.0177.003-.0059.005-.0118.008-.0177.002-.0059.005-.0118.007-.0177.003-.0059.006-.0118.008-.0177.003-.0059.005-.0118.008-.0177.002-.006.005-.0119.007-.0178.003-.0059.005-.0118.008-.0177.002-.0059.005-.0118.007-.0177.003-.0059.005-.0118.008-.0177s.005-.0118.008-.0177c.002-.0059.005-.0119.007-.0178.003-.0059.005-.0118.008-.0177.002-.0059.005-.0118.007-.0177.003-.0059.005-.0118.008-.0177s.005-.0118.008-.0177c.002-.0059.005-.0118.007-.0178.003-.0059.005-.0118.008-.0177.002-.0059.005-.0118.007-.0177.003-.0059.005-.0118.008-.0177.002-.0059.005-.0118.008-.0177.002-.0059.005-.0118.007-.0177.003-.006.005-.0119.008-.0178.002-.0059.005-.0118.007-.0177.003-.0059.005-.0118.008-.0177.002-.0059.005-.0118.008-.0177.002-.0059.005-.0118.007-.0177.003-.0059.005-.0119.008-.0178.002-.0059.005-.0118.007-.0177.003-.0059.005-.0118.008-.0177.002-.0059.005-.0118.007-.0177.003-.0059.006-.0118.008-.0177.003-.0059.005-.0118.008-.0178.002-.0059.005-.0118.007-.0177.003-.0059.005-.0118.008-.0177.002-.0059.005-.0118.007-.0177.003-.0059.006-.0118.008-.0177.003-.0059.005-.0118.008-.0177.002-.006.005-.0119.007-.0178.003-.0059.005-.0118.008-.0177.002-.0059.005-.0118.007-.0177.003-.0059.005-.0118.008-.0177s.005-.0118.008-.0177c.002-.0059.005-.0119.007-.0178.003-.0059.005-.0118.008-.0177.002-.0059.005-.0118.007-.0177.003-.0059.005-.0118.008-.0177s.005-.0118.008-.0177c.002-.0059.005-.0118.007-.0178.003-.0059.005-.0118.008-.0177.002-.0059.005-.0118.007-.0177.003-.0059.005-.0118.008-.0177.002-.0059.005-.0118.008-.0177.002-.0059.005-.0118.007-.0177.003-.006.005-.0119.008-.0178.002-.0059.005-.0118.007-.0177.003-.0059.005-.0118.008-.0177.002-.0059.005-.0118.008-.0177.002-.0059.005-.0118.007-.0177.003-.0059.005-.0119.008-.0178.002-.0059.005-.0118.007-.0177.003-.0059.005-.0118.008-.0177.002-.0059.005-.0118.007-.0177.003-.0059.006-.0118.008-.0177.003-.0059.005-.0118.008-.0178.002-.0059.005-.0118.007-.0177.003-.0059.005-.0118.008-.0177.002-.0059.005-.0118.007-.0177.003-.0059.006-.0118.008-.0177.003-.0059.005-.0118.008-.0177.002-.006.005-.0119.007-.0178.003-.0059.005-.0118.008-.0177.002-.0059.005-.0118.007-.0177.003-.0059.005-.0118.008-.0177s.005-.0118.008-.0177c.002-.0059.005-.0119.007-.0178.003-.0059.005-.0118.008-.0177.002-.0059.005-.0118.007-.0177.003-.0059.005-.0118.008-.0177s.005-.0118.008-.0177c.002-.0059.005-.0118.007-.0178.003-.0059.005-.0118.008-.0177.002-.0059.005-.0118.007-.0177.003-.0059.005-.0118.008-.0177.002-.0059.005-.0118.008-.0177.002-.0059.005-.0118.007-.0177.003-.006.005-.0119.008-.0178.002-.0059.005-.0118.007-.0177.003-.0059.005-.0118.008-.0177.002-.0059.005-.0118.008-.0177.002-.0059.005-.0118.007-.0177.003-.0059.005-.0119.008-.0178.002-.0059.005-.0118.007-.0177.003-.0059.005-.0118.008-.0177.002-.0059.005-.0118.007-.0177.003-.0059.006-.0118.008-.0177.003-.0059.005-.0118.008-.0178.002-.0059.005-.0118.007-.0177.003-.0059.005-.0118.008-.0177.002-.0059.005-.0118.007-.0177.003-.0059.006-.0118.008-.0177.003-.0059.005-.0118.008-.0177.002-.006.005-.0119.007-.0178.003-.0059.005-.0118.008-.0177.002-.0059.005-.0118.007-.0177.003-.0059.005-.0118.008-.0177s.005-.0118.008-.0177c.002-.0059.005-.0119.007-.0178.003-.0059.005-.0118.008-.0177.002-.0059.005-.0118.007-.0177.003-.0059.005-.0118.008-.0177s.005-.0118.008-.0177c.002-.0059.005-.0118.007-.0178.003-.0059.005-.0118.008-.0177.002-.0059.005-.0118.007-.0177zm-3.911 9.1296c-.002.0059-.004.0118-.006.0177s-.004.0118-.006.0177-.004.0118-.007.0177c-.002.0059-.004.0118-.006.0177s-.004.0118-.006.0177c-.002.006-.004.0119-.007.0178-.002.0059-.004.0118-.006.0177s-.004.0118-.006.0177-.004.0118-.006.0177c-.003.0059-.005.0118-.007.0177s-.004.0119-.006.0178-.004.0118-.006.0177c-.003.0059-.005.0118-.007.0177s-.004.0118-.006.0177-.004.0118-.006.0177c-.003.0059-.005.0118-.007.0178-.002.0059-.004.0118-.006.0177s-.004.0118-.006.0177c-.003.0059-.005.0118-.007.0177s-.004.0118-.006.0177-.004.0118-.006.0177c-.003.006-.005.0119-.007.0178s-.004.0118-.006.0177-.004.0118-.006.0177c-.003.0059-.005.0118-.007.0177s-.004.0118-.006.0177-.004.0119-.006.0178c-.003.0059-.005.0118-.007.0177s-.004.0118-.006.0177-.004.0118-.006.0177-.005.0118-.007.0177-.004.0118-.006.0178c-.002.0059-.004.0118-.006.0177s-.005.0118-.007.0177-.004.0118-.006.0177-.004.0118-.006.0177-.005.0118-.007.0177c-.002.006-.004.0119-.006.0178s-.004.0118-.006.0177-.005.0118-.007.0177-.004.0118-.006.0177-.004.0118-.006.0177-.005.0119-.007.0178-.004.0118-.006.0177-.004.0118-.006.0177-.005.0118-.007.0177-.004.0118-.006.0177-.004.0118-.006.0178c-.002.0059-.005.0118-.007.0177s-.004.0118-.006.0177-.004.0118-.006.0177-.004.0118-.007.0177c-.002.0059-.004.0118-.006.0177-.002.006-.004.0119-.006.0178s-.004.0118-.007.0177c-.002.0059-.004.0118-.006.0177s-.004.0118-.006.0177-.004.0118-.007.0177c-.002.0059-.004.0119-.006.0178s-.004.0118-.006.0177-.004.0118-.007.0177c-.002.0059-.004.0118-.006.0177s-.004.0118-.006.0177-.004.0118-.007.0178c-.002.0059-.004.0118-.006.0177s-.004.0118-.006.0177-.004.0118-.007.0177c-.002.0059-.004.0118-.006.0177s-.004.0118-.006.0177c-.002.006-.004.0119-.007.0178-.002.0059-.004.0118-.006.0177s-.004.0118-.006.0177-.004.0118-.006.0177c-.003.0059-.005.0118-.007.0177s-.004.0119-.006.0178-.004.0118-.006.0177c-.003.0059-.005.0118-.007.0177s-.004.0118-.006.0177-.004.0118-.006.0177c-.003.0059-.005.0118-.007.0178-.002.0059-.004.0118-.006.0177s-.004.0118-.006.0177c-.003.0059-.005.0118-.007.0177s-.004.0118-.006.0177-.004.0118-.006.0177c-.003.006-.005.0119-.007.0178s-.004.0118-.006.0177-.004.0118-.006.0177c-.003.0059-.005.0118-.007.0177s-.004.0118-.006.0177-.004.0119-.006.0178c-.003.0059-.005.0118-.007.0177s-.004.0118-.006.0177-.004.0118-.006.0177-.005.0118-.007.0177-.004.0118-.006.0178c-.002.0059-.004.0118-.006.0177s-.005.0118-.007.0177-.004.0118-.006.0177-.004.0118-.006.0177-.005.0118-.007.0177c-.002.006-.004.0119-.006.0178s-.004.0118-.006.0177-.005.0118-.007.0177-.004.0118-.006.0177-.004.0118-.006.0177-.005.0119-.007.0178-.004.0118-.006.0177-.004.0118-.006.0177-.005.0118-.007.0177-.004.0118-.006.0177-.004.0118-.006.0178c-.002.0059-.005.0118-.007.0177s-.004.0118-.006.0177-.004.0118-.006.0177-.004.0118-.007.0177c-.002.0059-.004.0118-.006.0177-.002.006-.004.0119-.006.0178s-.004.0118-.007.0177c-.002.0059-.004.0118-.006.0177s-.004.0118-.006.0177-.004.0118-.007.0177c-.002.0059-.004.0119-.006.0178s-.004.0118-.006.0177-.004.0118-.007.0177c-.002.0059-.004.0118-.006.0177s-.004.0118-.006.0177-.004.0118-.007.0178c-.002.0059-.004.0118-.006.0177s-.004.0118-.006.0177-.004.0118-.007.0177c-.002.0059-.004.0118-.006.0177s-.004.0118-.006.0177c-.002.006-.004.0119-.007.0178-.002.0059-.004.0118-.006.0177s-.004.0118-.006.0177-.004.0118-.006.0177c-.003.0059-.005.0118-.007.0177s-.004.0119-.006.0178-.004.0118-.006.0177c-.003.0059-.005.0118-.007.0177s-.004.0118-.006.0177-.004.0118-.006.0177c-.003.0059-.005.0118-.007.0178-.002.0059-.004.0118-.006.0177s-.004.0118-.006.0177c-.003.0059-.005.0118-.007.0177s-.004.0118-.006.0177-.004.0118-.006.0177c-.003.006-.005.0119-.007.0178s-.004.0118-.006.0177-.004.0118-.006.0177c-.003.0059-.005.0118-.007.0177s-.004.0118-.006.0177-.004.0119-.006.0178c-.003.0059-.005.0118-.007.0177s-.004.0118-.006.0177-.004.0118-.006.0177-.005.0118-.007.0177-.004.0118-.006.0178c-.002.0059-.004.0118-.006.0177s-.005.0118-.007.0177-.004.0118-.006.0177-.004.0118-.006.0177-.005.0118-.007.0177c-.002.006-.004.0119-.006.0178s-.004.0118-.006.0177-.005.0118-.007.0177-.004.0118-.006.0177-.004.0118-.006.0177-.005.0119-.007.0178-.004.0118-.006.0177-.004.0118-.006.0177-.005.0118-.007.0177-.004.0118-.006.0177-.004.0118-.006.0178c-.002.0059-.005.0118-.007.0177s-.004.0118-.006.0177-.004.0118-.006.0177-.004.0118-.007.0177c-.002.0059-.004.0118-.006.0177-.002.006-.004.0119-.006.0178s-.004.0118-.007.0177c-.002.0059-.004.0118-.006.0177s-.004.0118-.006.0177-.004.0118-.007.0177c-.002.0059-.004.0119-.006.0178s-.004.0118-.006.0177-.004.0118-.007.0177c-.002.0059-.004.0118-.006.0177s-.004.0118-.006.0177-.004.0118-.007.0178c-.002.0059-.004.0118-.006.0177s-.004.0118-.006.0177-.004.0118-.007.0177c-.002.0059-.004.0118-.006.0177s-.004.0118-.006.0177c-.002.006-.004.0119-.007.0178-.002.0059-.004.0118-.006.0177s-.004.0118-.006.0177-.004.0118-.006.0177c-.003.0059-.005.0118-.007.0177s-.004.0119-.006.0178-.004.0118-.006.0177c-.003.0059-.005.0118-.007.0177s-.004.0118-.006.0177-.004.0118-.006.0177c-.003.0059-.005.0118-.007.0178-.002.0059-.004.0118-.006.0177s-.004.0118-.006.0177c-.003.0059-.005.0118-.007.0177s-.004.0118-.006.0177-.004.0118-.006.0177c-.003.006-.005.0119-.007.0178s-.004.0118-.006.0177-.004.0118-.006.0177c-.003.0059-.005.0118-.007.0177s-.004.0118-.006.0177-.004.0119-.006.0178c-.003.0059-.005.0118-.007.0177s-.004.0118-.006.0177-.004.0118-.006.0177-.005.0118-.007.0177-.004.0118-.006.0178c-.002.0059-.004.0118-.006.0177s-.005.0118-.007.0177-.004.0118-.006.0177-.004.0118-.006.0177-.005.0118-.007.0177c-.002.006-.004.0119-.006.0178s-.004.0118-.006.0177-.005.0118-.007.0177-.004.0118-.006.0177-.004.0118-.006.0177-.005.0119-.007.0178-.004.0118-.006.0177-.004.0118-.006.0177-.005.0118-.007.0177-.004.0118-.006.0177-.004.0118-.006.0178c-.002.0059-.005.0118-.007.0177s-.004.0118-.006.0177-.004.0118-.006.0177-.004.0118-.007.0177c-.002.0059-.004.0118-.006.0177-.002.006-.004.0119-.006.0178s-.004.0118-.007.0177c-.002.0059-.004.0118-.006.0177s-.004.0118-.006.0177-.004.0118-.007.0177c-.002.0059-.004.0119-.006.0178s-.004.0118-.006.0177-.004.0118-.007.0177c-.002.0059-.004.0118-.006.0177s-.004.0118-.006.0177-.004.0118-.007.0178c-.002.0059-.004.0118-.006.0177s-.004.0118-.006.0177-.004.0118-.007.0177c-.002.0059-.004.0118-.006.0177s-.004.0118-.006.0177c-.002.006-.004.0119-.007.0178-.002.0059-.004.0118-.006.0177s-.004.0118-.006.0177-.004.0118-.006.0177c-.003.0059-.005.0118-.007.0177s-.004.0119-.006.0178-.004.0118-.006.0177c-.003.0059-.005.0118-.007.0177s-.004.0118-.006.0177-.004.0118-.006.0177c-.003.0059-.005.0118-.007.0178-.002.0059-.004.0118-.006.0177s-.004.0118-.006.0177c-.003.0059-.005.0118-.007.0177s-.004.0118-.006.0177-.004.0118-.006.0177c-.003.006-.005.0119-.007.0178s-.004.0118-.006.0177-.004.0118-.006.0177c-.003.0059-.005.0118-.007.0177s-.004.0118-.006.0177-.004.0119-.006.0178c-.003.0059-.005.0118-.007.0177s-.004.0118-.006.0177-.004.0118-.006.0177-.005.0118-.007.0177-.004.0118-.006.0178c-.002.0059-.004.0118-.006.0177s-.005.0118-.007.0177-.004.0118-.006.0177-.004.0118-.006.0177-.005.0118-.007.0177c-.002.006-.004.0119-.006.0178s-.004.0118-.006.0177-.005.0118-.007.0177-.004.0118-.006.0177-.004.0118-.006.0177-.005.0119-.007.0178-.004.0118-.006.0177-.004.0118-.006.0177-.005.0118-.007.0177-.004.0118-.006.0177-.004.0118-.006.0178c-.002.0059-.005.0118-.007.0177s-.004.0118-.006.0177-.004.0118-.006.0177-.004.0118-.007.0177c-.002.0059-.004.0118-.006.0177-.002.006-.004.0119-.006.0178s-.004.0118-.007.0177c-.002.0059-.004.0118-.006.0177s-.004.0118-.006.0177-.004.0118-.007.0177c-.002.0059-.004.0119-.006.0178s-.004.0118-.006.0177-.004.0118-.007.0177c-.002.0059-.004.0118-.006.0177s-.004.0118-.006.0177-.004.0118-.007.0178c-.002.0059-.004.0118-.006.0177s-.004.0118-.006.0177-.004.0118-.007.0177c-.002.0059-.004.0118-.006.0177s-.004.0118-.006.0177c-.002.006-.004.0119-.007.0178-.002.0059-.004.0118-.006.0177s-.004.0118-.006.0177-.004.0118-.006.0177c-.003.0059-.005.0118-.007.0177s-.004.0119-.006.0178-.004.0118-.006.0177c-.003.0059-.005.0118-.007.0177s-.004.0118-.006.0177-.004.0118-.006.0177c-.003.0059-.005.0118-.007.0178-.002.0059-.004.0118-.006.0177s-.004.0118-.006.0177c-.003.0059-.005.0118-.007.0177s-.004.0118-.006.0177-.004.0118-.006.0177c-.003.006-.005.0119-.007.0178s-.004.0118-.006.0177-.004.0118-.006.0177c-.003.0059-.005.0118-.007.0177s-.004.0118-.006.0177-.004.0119-.006.0178c-.003.0059-.005.0118-.007.0177s-.004.0118-.006.0177-.004.0118-.006.0177-.005.0118-.007.0177-.004.0118-.006.0178c-.002.0059-.004.0118-.006.0177s-.005.0118-.007.0177-.004.0118-.006.0177-.004.0118-.006.0177-.005.0118-.007.0177c-.002.006-.004.0119-.006.0178s-.004.0118-.006.0177-.005.0118-.007.0177-.004.0118-.006.0177-.004.0118-.006.0177-.005.0119-.007.0178-.004.0118-.006.0177-.004.0118-.006.0177-.005.0118-.007.0177-.004.0118-.006.0177-.004.0118-.006.0178c-.002.0059-.005.0118-.007.0177s-.004.0118-.006.0177-.004.0118-.006.0177-.004.0118-.007.0177c-.002.0059-.004.0118-.006.0177-.002.006-.004.0119-.006.0178s-.004.0118-.007.0177c-.002.0059-.004.0118-.006.0177s-.004.0118-.006.0177-.004.0118-.007.0177c-.002.0059-.004.0119-.006.0178s-.004.0118-.006.0177-.004.0118-.007.0177c-.002.0059-.004.0118-.006.0177s-.004.0118-.006.0177-.004.0118-.007.0178c-.002.0059-.004.0118-.006.0177s-.004.0118-.006.0177-.004.0118-.007.0177c-.002.0059-.004.0118-.006.0177s-.004.0118-.006.0177c-.002.006-.004.0119-.007.0178-.002.0059-.004.0118-.006.0177s-.004.0118-.006.0177-.004.0118-.006.0177c-.003.0059-.005.0118-.007.0177s-.004.0119-.006.0178-.004.0118-.006.0177c-.003.0059-.005.0118-.007.0177s-.004.0118-.006.0177-.004.0118-.006.0177c-.003.0059-.005.0118-.007.0178-.002.0059-.004.0118-.006.0177s-.004.0118-.006.0177c-.003.0059-.005.0118-.007.0177s-.004.0118-.006.0177-.004.0118-.006.0177c-.003.006-.005.0119-.007.0178s-.004.0118-.006.0177-.004.0118-.006.0177c-.003.0059-.005.0118-.007.0177s-.004.0118-.006.0177-.004.0119-.006.0178c-.003.0059-.005.0118-.007.0177s-.004.0118-.006.0177-.004.0118-.006.0177-.005.0118-.007.0177-.004.0118-.006.0178c-.002.0059-.004.0118-.006.0177s-.005.0118-.007.0177-.004.0118-.006.0177-.004.0118-.006.0177-.005.0118-.007.0177c-.002.006-.004.0119-.006.0178s-.004.0118-.006.0177-.005.0118-.007.0177-.004.0118-.006.0177-.004.0118-.006.0177-.005.0119-.007.0178-.004.0118-.006.0177-.004.0118-.006.0177-.005.0118-.007.0177-.004.0118-.006.0177-.004.0118-.006.0178c-.002.0059-.005.0118-.007.0177s-.004.0118-.006.0177-.004.0118-.006.0177-.004.0118-.007.0177c-.002.0059-.004.0118-.006.0177-.002.006-.004.0119-.006.0178s-.004.0118-.007.0177c-.002.0059-.004.0118-.006.0177s-.004.0118-.006.0177-.004.0118-.007.0177c-.002.0059-.004.0119-.006.0178s-.004.0118-.006.0177-.004.0118-.007.0177c-.002.0059-.004.0118-.006.0177s-.004.0118-.006.0177-.004.0118-.007.0178c-.002.0059-.004.0118-.006.0177s-.004.0118-.006.0177-.004.0118-.007.0177c-.002.0059-.004.0118-.006.0177s-.004.0118-.006.0177c-.002.006-.004.0119-.007.0178-.002.0059-.004.0118-.006.0177s-.004.0118-.006.0177-.004.0118-.006.0177c-.003.0059-.005.0118-.007.0177s-.004.0119-.006.0178-.004.0118-.006.0177c-.003.0059-.005.0118-.007.0177s-.004.0118-.006.0177-.004.0118-.006.0177c-.003.0059-.005.0118-.007.0178-.002.0059-.004.0118-.006.0177s-.004.0118-.006.0177c-.003.0059-.005.0118-.007.0177s-.004.0118-.006.0177-.004.0118-.006.0177c-.003.006-.005.0119-.007.0178s-.004.0118-.006.0177-.004.0118-.006.0177c-.003.0059-.005.0118-.007.0177s-.004.0118-.006.0177-.004.0119-.006.0178c-.003.0059-.005.0118-.007.0177s-.004.0118-.006.0177-.004.0118-.006.0177-.005.0118-.007.0177-.004.0118-.006.0178c-.002.0059-.004.0118-.006.0177s-.005.0118-.007.0177-.004.0118-.006.0177-.004.0118-.006.0177-.005.0118-.007.0177c-.002.006-.004.0119-.006.0178s-.004.0118-.006.0177-.005.0118-.007.0177-.004.0118-.006.0177-.004.0118-.006.0177-.005.0119-.007.0178-.004.0118-.006.0177-.004.0118-.006.0177-.005.0118-.007.0177-.004.0118-.006.0177-.004.0118-.006.0178c-.002.0059-.005.0118-.007.0177s-.004.0118-.006.0177-.004.0118-.006.0177-.004.0118-.007.0177c-.002.0059-.004.0118-.006.0177-.002.006-.004.0119-.006.0178s-.004.0118-.007.0177c-.002.0059-.004.0118-.006.0178s-.004.012-.006.018-.004.011-.007.017c-.002.006-.004.012-.006.018s-.004.012-.006.018-.004.012-.007.017c-.002.006-.004.012-.006.018s-.004.012-.006.018-.004.012-.007.018l1.884.672c.002-.006.004-.011.006-.017s.004-.012.007-.018c.002-.006.004-.012.006-.018s.004-.012.006-.018c.002-.005.004-.011.007-.017.002-.006.004-.012.006-.018s.004-.012.006-.018.004-.012.007-.017c.002-.006.004-.012.006-.018s.004-.012.006-.018.004-.012.007-.018c.002-.005.004-.011.006-.017s.004-.012.006-.018.004-.012.007-.018c.002-.006.004-.012.006-.017.002-.006.004-.012.006-.018s.004-.012.007-.018c.002-.006.004-.012.006-.018s.004-.011.006-.017.004-.012.007-.018c.002-.006.004-.012.006-.018s.004-.012.006-.017c.002-.006.004-.012.006-.018.003-.006.005-.012.007-.018s.004-.012.006-.018.004-.011.006-.017c.003-.006.005-.012.007-.018s.004-.012.006-.018.004-.012.006-.018c.003-.005.005-.011.007-.017s.004-.012.006-.018.004-.012.006-.018c.003-.006.005-.011.007-.017s.004-.012.006-.018.004-.012.006-.018c.003-.006.005-.012.007-.018.002-.005.004-.011.006-.017s.004-.012.006-.018c.003-.006.005-.012.007-.018s.004-.012.006-.017c.002-.006.004-.012.006-.018.003-.006.005-.012.007-.018s.004-.012.006-.018c.002-.005.004-.011.006-.017s.005-.012.007-.018.004-.012.006-.018c.002-.0056.004-.0116.006-.0175s.005-.0118.007-.0177.004-.0118.006-.0177.004-.0118.006-.0177.005-.0118.007-.0177.004-.0118.006-.0178c.002-.0059.004-.0118.006-.0177s.005-.0118.007-.0177.004-.0118.006-.0177.004-.0118.006-.0177.005-.0118.007-.0177c.002-.006.004-.0119.006-.0178s.004-.0118.006-.0177.005-.0118.007-.0177.004-.0118.006-.0177.004-.0118.006-.0177.005-.0119.007-.0178.004-.0118.006-.0177.004-.0118.006-.0177.004-.0118.007-.0177c.002-.0059.004-.0118.006-.0177s.004-.0118.006-.0178c.002-.0059.004-.0118.007-.0177.002-.0059.004-.0118.006-.0177s.004-.0118.006-.0177.004-.0118.007-.0177c.002-.0059.004-.0118.006-.0177.002-.006.004-.0119.006-.0178s.004-.0118.007-.0177c.002-.0059.004-.0118.006-.0177s.004-.0118.006-.0177.004-.0118.007-.0177c.002-.0059.004-.0119.006-.0178s.004-.0118.006-.0177.004-.0118.007-.0177c.002-.0059.004-.0118.006-.0177s.004-.0118.006-.0177.004-.0118.007-.0178c.002-.0059.004-.0118.006-.0177s.004-.0118.006-.0177.004-.0118.006-.0177c.003-.0059.005-.0118.007-.0177s.004-.0118.006-.0177c.002-.006.004-.0119.006-.0178.003-.0059.005-.0118.007-.0177s.004-.0118.006-.0177.004-.0118.006-.0177c.003-.0059.005-.0118.007-.0177s.004-.0119.006-.0178.004-.0118.006-.0177c.003-.0059.005-.0118.007-.0177s.004-.0118.006-.0177.004-.0118.006-.0177c.003-.0059.005-.0118.007-.0178.002-.0059.004-.0118.006-.0177s.004-.0118.006-.0177c.003-.0059.005-.0118.007-.0177s.004-.0118.006-.0177.004-.0118.006-.0177c.003-.006.005-.0119.007-.0178s.004-.0118.006-.0177l.006-.0177c.002-.0059.005-.0118.007-.0177s.004-.0118.006-.0177.004-.0119.006-.0178.005-.0118.007-.0177.004-.0118.006-.0177.004-.0118.006-.0177.005-.0118.007-.0177.004-.0118.006-.0178c.002-.0059.004-.0118.006-.0177s.005-.0118.007-.0177.004-.0118.006-.0177.004-.0118.006-.0177.005-.0118.007-.0177c.002-.006.004-.0119.006-.0178s.004-.0118.006-.0177.005-.0118.007-.0177.004-.0118.006-.0177.004-.0118.006-.0177.005-.0119.007-.0178.004-.0118.006-.0177.004-.0118.006-.0177.004-.0118.007-.0177c.002-.0059.004-.0118.006-.0177s.004-.0118.006-.0178c.002-.0059.004-.0118.007-.0177.002-.0059.004-.0118.006-.0177s.004-.0118.006-.0177.004-.0118.007-.0177c.002-.0059.004-.0118.006-.0177.002-.006.004-.0119.006-.0178s.004-.0118.007-.0177c.002-.0059.004-.0118.006-.0177s.004-.0118.006-.0177.004-.0118.007-.0177c.002-.0059.004-.0119.006-.0178s.004-.0118.006-.0177.004-.0118.007-.0177c.002-.0059.004-.0118.006-.0177s.004-.0118.006-.0177.004-.0118.007-.0178c.002-.0059.004-.0118.006-.0177s.004-.0118.006-.0177.004-.0118.006-.0177c.003-.0059.005-.0118.007-.0177s.004-.0118.006-.0177c.002-.006.004-.0119.006-.0178.003-.0059.005-.0118.007-.0177s.004-.0118.006-.0177l.006-.0177c.003-.0059.005-.0118.007-.0177s.004-.0119.006-.0178.004-.0118.006-.0177c.003-.0059.005-.0118.007-.0177s.004-.0118.006-.0177.004-.0118.006-.0177c.003-.0059.005-.0118.007-.0178.002-.0059.004-.0118.006-.0177s.004-.0118.006-.0177c.003-.0059.005-.0118.007-.0177s.004-.0118.006-.0177.004-.0118.006-.0177c.003-.006.005-.0119.007-.0178s.004-.0118.006-.0177.004-.0118.006-.0177.005-.0118.007-.0177.004-.0118.006-.0177.004-.0119.006-.0178.005-.0118.007-.0177.004-.0118.006-.0177.004-.0118.006-.0177.005-.0118.007-.0177.004-.0118.006-.0178c.002-.0059.004-.0118.006-.0177s.005-.0118.007-.0177.004-.0118.006-.0177.004-.0118.006-.0177.005-.0118.007-.0177c.002-.006.004-.0119.006-.0178s.004-.0118.006-.0177.005-.0118.007-.0177.004-.0118.006-.0177.004-.0118.006-.0177.005-.0119.007-.0178.004-.0118.006-.0177.004-.0118.006-.0177.004-.0118.007-.0177c.002-.0059.004-.0118.006-.0177s.004-.0118.006-.0178c.002-.0059.004-.0118.007-.0177.002-.0059.004-.0118.006-.0177s.004-.0118.006-.0177.004-.0118.007-.0177c.002-.0059.004-.0118.006-.0177.002-.006.004-.0119.006-.0178s.004-.0118.007-.0177c.002-.0059.004-.0118.006-.0177s.004-.0118.006-.0177.004-.0118.007-.0177c.002-.0059.004-.0119.006-.0178s.004-.0118.006-.0177.004-.0118.007-.0177c.002-.0059.004-.0118.006-.0177s.004-.0118.006-.0177.004-.0118.007-.0178c.002-.0059.004-.0118.006-.0177s.004-.0118.006-.0177.004-.0118.006-.0177c.003-.0059.005-.0118.007-.0177s.004-.0118.006-.0177c.002-.006.004-.0119.006-.0178.003-.0059.005-.0118.007-.0177s.004-.0118.006-.0177.004-.0118.006-.0177c.003-.0059.005-.0118.007-.0177s.004-.0119.006-.0178.004-.0118.006-.0177c.003-.0059.005-.0118.007-.0177s.004-.0118.006-.0177.004-.0118.006-.0177c.003-.0059.005-.0118.007-.0178.002-.0059.004-.0118.006-.0177s.004-.0118.006-.0177c.003-.0059.005-.0118.007-.0177s.004-.0118.006-.0177.004-.0118.006-.0177c.003-.006.005-.0119.007-.0178s.004-.0118.006-.0177.004-.0118.006-.0177.005-.0118.007-.0177.004-.0118.006-.0177.004-.0119.006-.0178.005-.0118.007-.0177.004-.0118.006-.0177.004-.0118.006-.0177.005-.0118.007-.0177.004-.0118.006-.0178c.002-.0059.004-.0118.006-.0177s.005-.0118.007-.0177.004-.0118.006-.0177.004-.0118.006-.0177.005-.0118.007-.0177c.002-.006.004-.0119.006-.0178s.004-.0118.006-.0177.005-.0118.007-.0177.004-.0118.006-.0177.004-.0118.006-.0177.005-.0119.007-.0178.004-.0118.006-.0177.004-.0118.006-.0177.004-.0118.007-.0177c.002-.0059.004-.0118.006-.0177s.004-.0118.006-.0178c.002-.0059.004-.0118.007-.0177.002-.0059.004-.0118.006-.0177s.004-.0118.006-.0177.004-.0118.007-.0177c.002-.0059.004-.0118.006-.0177.002-.006.004-.0119.006-.0178s.004-.0118.007-.0177c.002-.0059.004-.0118.006-.0177s.004-.0118.006-.0177.004-.0118.007-.0177c.002-.0059.004-.0119.006-.0178s.004-.0118.006-.0177.004-.0118.007-.0177c.002-.0059.004-.0118.006-.0177s.004-.0118.006-.0177.004-.0118.007-.0178c.002-.0059.004-.0118.006-.0177s.004-.0118.006-.0177.004-.0118.006-.0177c.003-.0059.005-.0118.007-.0177s.004-.0118.006-.0177c.002-.006.004-.0119.006-.0178.003-.0059.005-.0118.007-.0177s.004-.0118.006-.0177.004-.0118.006-.0177c.003-.0059.005-.0118.007-.0177s.004-.0119.006-.0178.004-.0118.006-.0177c.003-.0059.005-.0118.007-.0177s.004-.0118.006-.0177.004-.0118.006-.0177c.003-.0059.005-.0118.007-.0178.002-.0059.004-.0118.006-.0177s.004-.0118.006-.0177c.003-.0059.005-.0118.007-.0177s.004-.0118.006-.0177.004-.0118.006-.0177c.003-.006.005-.0119.007-.0178s.004-.0118.006-.0177.004-.0118.006-.0177.005-.0118.007-.0177.004-.0118.006-.0177.004-.0119.006-.0178.005-.0118.007-.0177.004-.0118.006-.0177.004-.0118.006-.0177.005-.0118.007-.0177.004-.0118.006-.0178c.002-.0059.004-.0118.006-.0177s.005-.0118.007-.0177.004-.0118.006-.0177.004-.0118.006-.0177.005-.0118.007-.0177c.002-.006.004-.0119.006-.0178s.004-.0118.006-.0177.005-.0118.007-.0177.004-.0118.006-.0177.004-.0118.006-.0177.005-.0119.007-.0178.004-.0118.006-.0177.004-.0118.006-.0177.004-.0118.007-.0177c.002-.0059.004-.0118.006-.0177s.004-.0118.006-.0178c.002-.0059.004-.0118.007-.0177.002-.0059.004-.0118.006-.0177s.004-.0118.006-.0177.004-.0118.007-.0177c.002-.0059.004-.0118.006-.0177.002-.006.004-.0119.006-.0178s.004-.0118.007-.0177c.002-.0059.004-.0118.006-.0177s.004-.0118.006-.0177.004-.0118.007-.0177c.002-.0059.004-.0119.006-.0178s.004-.0118.006-.0177.004-.0118.007-.0177c.002-.0059.004-.0118.006-.0177s.004-.0118.006-.0177.004-.0118.007-.0178c.002-.0059.004-.0118.006-.0177s.004-.0118.006-.0177.004-.0118.006-.0177c.003-.0059.005-.0118.007-.0177s.004-.0118.006-.0177c.002-.006.004-.0119.006-.0178.003-.0059.005-.0118.007-.0177s.004-.0118.006-.0177.004-.0118.006-.0177c.003-.0059.005-.0118.007-.0177s.004-.0119.006-.0178.004-.0118.006-.0177c.003-.0059.005-.0118.007-.0177s.004-.0118.006-.0177.004-.0118.006-.0177c.003-.0059.005-.0118.007-.0178.002-.0059.004-.0118.006-.0177s.004-.0118.006-.0177c.003-.0059.005-.0118.007-.0177s.004-.0118.006-.0177.004-.0118.006-.0177c.003-.006.005-.0119.007-.0178s.004-.0118.006-.0177.004-.0118.006-.0177.005-.0118.007-.0177.004-.0118.006-.0177.004-.0119.006-.0178.005-.0118.007-.0177.004-.0118.006-.0177.004-.0118.006-.0177.005-.0118.007-.0177.004-.0118.006-.0178c.002-.0059.004-.0118.006-.0177s.005-.0118.007-.0177.004-.0118.006-.0177.004-.0118.006-.0177.005-.0118.007-.0177c.002-.006.004-.0119.006-.0178s.004-.0118.006-.0177.005-.0118.007-.0177.004-.0118.006-.0177.004-.0118.006-.0177.005-.0119.007-.0178.004-.0118.006-.0177.004-.0118.006-.0177.004-.0118.007-.0177c.002-.0059.004-.0118.006-.0177s.004-.0118.006-.0178c.002-.0059.004-.0118.007-.0177.002-.0059.004-.0118.006-.0177s.004-.0118.006-.0177.004-.0118.007-.0177c.002-.0059.004-.0118.006-.0177.002-.006.004-.0119.006-.0178s.004-.0118.007-.0177c.002-.0059.004-.0118.006-.0177s.004-.0118.006-.0177.004-.0118.007-.0177c.002-.0059.004-.0119.006-.0178s.004-.0118.006-.0177.004-.0118.007-.0177c.002-.0059.004-.0118.006-.0177s.004-.0118.006-.0177.004-.0118.007-.0178c.002-.0059.004-.0118.006-.0177s.004-.0118.006-.0177.004-.0118.006-.0177c.003-.0059.005-.0118.007-.0177s.004-.0118.006-.0177c.002-.006.004-.0119.006-.0178.003-.0059.005-.0118.007-.0177s.004-.0118.006-.0177.004-.0118.006-.0177c.003-.0059.005-.0118.007-.0177s.004-.0119.006-.0178.004-.0118.006-.0177c.003-.0059.005-.0118.007-.0177s.004-.0118.006-.0177.004-.0118.006-.0177c.003-.0059.005-.0118.007-.0178.002-.0059.004-.0118.006-.0177s.004-.0118.006-.0177c.003-.0059.005-.0118.007-.0177s.004-.0118.006-.0177.004-.0118.006-.0177c.003-.006.005-.0119.007-.0178s.004-.0118.006-.0177.004-.0118.006-.0177.005-.0118.007-.0177.004-.0118.006-.0177.004-.0119.006-.0178.005-.0118.007-.0177.004-.0118.006-.0177.004-.0118.006-.0177.005-.0118.007-.0177.004-.0118.006-.0178c.002-.0059.004-.0118.006-.0177s.005-.0118.007-.0177.004-.0118.006-.0177.004-.0118.006-.0177.005-.0118.007-.0177c.002-.006.004-.0119.006-.0178s.004-.0118.006-.0177.005-.0118.007-.0177.004-.0118.006-.0177.004-.0118.006-.0177.005-.0119.007-.0178.004-.0118.006-.0177.004-.0118.006-.0177.004-.0118.007-.0177c.002-.0059.004-.0118.006-.0177s.004-.0118.006-.0178c.002-.0059.004-.0118.007-.0177.002-.0059.004-.0118.006-.0177s.004-.0118.006-.0177.004-.0118.007-.0177c.002-.0059.004-.0118.006-.0177.002-.006.004-.0119.006-.0178s.004-.0118.007-.0177c.002-.0059.004-.0118.006-.0177s.004-.0118.006-.0177.004-.0118.007-.0177c.002-.0059.004-.0119.006-.0178s.004-.0118.006-.0177.004-.0118.007-.0177l.006-.0177c.002-.0059.004-.0118.006-.0177s.004-.0118.007-.0178c.002-.0059.004-.0118.006-.0177s.004-.0118.006-.0177.004-.0118.006-.0177c.003-.0059.005-.0118.007-.0177s.004-.0118.006-.0177c.002-.006.004-.0119.006-.0178.003-.0059.005-.0118.007-.0177s.004-.0118.006-.0177.004-.0118.006-.0177c.003-.0059.005-.0118.007-.0177s.004-.0119.006-.0178.004-.0118.006-.0177c.003-.0059.005-.0118.007-.0177s.004-.0118.006-.0177.004-.0118.006-.0177c.003-.0059.005-.0118.007-.0178.002-.0059.004-.0118.006-.0177s.004-.0118.006-.0177c.003-.0059.005-.0118.007-.0177s.004-.0118.006-.0177.004-.0118.006-.0177c.003-.006.005-.0119.007-.0178s.004-.0118.006-.0177.004-.0118.006-.0177.005-.0118.007-.0177.004-.0118.006-.0177.004-.0119.006-.0178.005-.0118.007-.0177.004-.0118.006-.0177.004-.0118.006-.0177.005-.0118.007-.0177.004-.0118.006-.0178c.002-.0059.004-.0118.006-.0177s.005-.0118.007-.0177.004-.0118.006-.0177.004-.0118.006-.0177.005-.0118.007-.0177c.002-.006.004-.0119.006-.0178s.004-.0118.006-.0177.005-.0118.007-.0177.004-.0118.006-.0177.004-.0118.006-.0177.005-.0119.007-.0178.004-.0118.006-.0177zm-1.961 10.3503c2.997-1.071 6.102-2.0345 9.317-2.8918l-.515-1.9324c-3.266.8707-6.424 1.8508-9.475 2.9404zm9.317-2.8918c3.245-.8654 6.383-1.731 9.413-2.5967l-.55-1.923c-3.017.8622-6.144 1.7247-9.378 2.5873zm9.363-2.5838c16.796-3.876 31.73-5.8064 44.811-5.8064v-2c-13.271 0-28.36 1.9575-45.261 5.8576zm44.811-5.8064c17.176 0 31.26 2.8994 42.307 8.6355l.922-1.775c-11.417-5.9279-25.844-8.8605-43.229-8.8605zm42.307 8.6355c11.072 5.7485 19.231 13.6025 24.526 23.5585l1.766-.94c-5.505-10.348-13.977-18.478-25.37-24.3935zm24.531 23.5655c5.31 9.772 7.978 20.944 7.978 33.543h2c0-12.889-2.732-24.397-8.221-34.498zm7.978 33.543c0 13.033-2.777 26.843-8.358 41.439l1.868.714c5.652-14.78 8.49-28.834 8.49-42.153zm-8.362 41.451c-5.365 14.592-13.312 29.31-23.853 44.154l1.631 1.158c10.626-14.964 18.664-29.838 24.099-44.622zm-23.849 44.148c-10.529 14.612-23.646 28.484-39.358 41.614l1.282 1.534c15.824-13.222 29.06-27.214 39.699-41.978zm-39.363 41.618c-15.487 13.12-33.24 24.742-53.265 34.863l.902 1.784c20.151-10.183 38.038-21.889 53.656-35.121zm-53.254 34.857c-10.552 5.168-20.557 9.363-30.014 12.587l.645 1.894c9.55-3.256 19.633-7.485 30.249-12.685zm-30.413 14.227c5.255 5.474 10.662 9.35 16.226 11.575l.743-1.856c-5.236-2.095-10.414-5.779-15.526-11.105zm16.226 11.575c5.448 2.18 10.014 3.312 13.655 3.312v-2c-3.271 0-7.561-1.028-12.912-3.168zm13.655 3.312c3.126 0 5.613-.663 7.187-2.237l-1.414-1.414c-1.018 1.018-2.85 1.651-5.773 1.651zm7.224-2.275c1.822-2.026 3.624-2.909 5.412-2.909v-2c-2.532 0-4.834 1.277-6.899 3.571zm5.412-2.909c1.308 0 2.378.368 3.264 1.077l1.249-1.562c-1.274-1.019-2.796-1.515-4.513-1.515zm3.264 1.077c.915.732 1.244 1.441 1.244 2.135h2c0-1.466-.75-2.701-1.995-3.697zm1.244 2.135c0 1.129-.928 2.494-3.686 3.98l.948 1.76c2.858-1.538 4.738-3.413 4.738-5.74zm-3.659 3.966c-2.512 1.256-5.009 2.086-7.493 2.5l.329 1.972c2.699-.45 5.386-1.348 8.058-2.684zm-7.571 2.516c-2.523.63-4.925.942-7.21.942v2c2.467 0 5.033-.336 7.695-1.002zm-37.985-23.034c5.008-1.741 10.227-3.916 15.656-6.522l-.866-1.804c-5.37 2.578-10.519 4.723-15.447 6.438zm15.613-6.503c5.661-2.395 11.426-5.332 17.292-8.809l-1.02-1.72c-5.797 3.435-11.481 6.33-17.051 8.687zm17.281-8.802c24.481-14.082 44.762-29.912 60.827-47.497l-1.476-1.348c-15.903 17.407-36.013 33.113-60.348 47.111zm60.827-47.496c16.259-17.776 28.421-35.794 36.465-54.056l-1.83-.806c-7.94 18.026-19.969 35.864-36.111 53.512zm36.461-54.047c8.251-18.238 12.401-35.228 12.401-50.956h-2c0 15.376-4.058 32.082-12.223 50.132zm12.401-50.956c0-18.794-5.689-34.28-17.121-46.371l-1.453 1.374c11.032 11.669 16.574 26.639 16.574 44.997zm-17.115-46.364c-11.482-12.366-28.639-18.464-51.277-18.464v2c22.29 0 38.829 5.998 49.811 17.824zm-51.277-18.464c-10.897 0-23.181 1.6341-36.843 4.887l.463 1.946c13.553-3.2271 25.677-4.833 36.38-4.833zm-36.841 4.887c-3.708.872-7.415 1.962-11.12 3.27l.666 1.886c3.639-1.284 7.276-2.354 10.912-3.21zm-11.069 3.254c-3.707 1.09-7.412 2.398-11.115 3.922l.762 1.85c3.641-1.5 7.28-2.784 10.917-3.854zm-11.668 4.491c-13.188 34.592-22.28 64.565-27.263 89.911l1.962.386c4.954-25.198 14.006-55.057 27.17-89.585zm-27.263 89.91c-4.976 25.096-7.364 46.554-7.147 64.358l2-.024c-.215-17.62 2.149-38.93 7.109-63.946zm-5.819 65.291c10.53-3.654 21.819-6.557 33.868-8.709l-.352-1.968c-12.142 2.168-23.534 5.096-34.172 8.787zm33.865-8.708c12.252-2.15 24.938-3.225 38.059-3.225v-2c-13.231 0-26.033 1.085-38.405 3.255zm38.059-3.225c2.346 0 4.692.107 7.038.32l.181-1.992c-2.406-.219-4.812-.328-7.219-.328zm7.128.324c2.564 0 5.129.107 7.693.321l.166-1.994c-2.619-.218-5.239-.327-7.859-.327zm7.7.321c1.366.105 2.277.31 2.816.559.263.121.384.229.433.29.035.043.039.065.039.098h2c0-1.093-.754-1.798-1.634-2.204-.865-.399-2.059-.626-3.501-.737zm3.288.947c0 .066-.011.177-.232.353-.25.2-.707.425-1.455.625-1.491.397-3.815.614-7.033.614v2c3.262 0 5.798-.215 7.548-.682.871-.232 1.63-.547 2.189-.995.59-.472.983-1.117.983-1.915zm-8.72 1.592c-2.782 0-5.674-.107-8.677-.321l-.142 1.994c3.046.218 5.986.327 8.819.327zm-8.671-.321c-2.834-.218-5.667-.327-8.501-.327v2c2.783 0 5.565.107 8.348.321zm-8.501-.327c-12.162 0-23.788 1.194-34.879 3.586l.422 1.956c10.942-2.36 22.427-3.542 34.457-3.542zm-34.879 3.586c-11.065 2.387-21.059 5.428-29.98 9.126l.766 1.848c8.792-3.646 18.669-6.653 29.636-9.018zm-30.596 10.095c.651 14.534 2.713 26.735 6.213 36.578l1.884-.67c-3.412-9.597-5.454-21.588-6.099-35.998zm6.215 36.585c3.482 9.574 7.632 17.451 12.466 23.604l1.573-1.236c-4.67-5.943-8.728-13.618-12.159-23.052zm-19.148 29.818c7.67 0 16.4-1.314 26.178-3.922l-.515-1.932c-9.662 2.576-18.213 3.854-25.663 3.854zm26.756-5.437c-4.483-6.831-8.446-15.072-11.882-24.734l-1.884.67c3.476 9.778 7.505 18.169 12.094 25.162zm-11.873-24.709c-3.216-9.863-5.58-21.03-7.086-33.506l-1.986.24c1.519 12.58 3.907 23.877 7.17 33.886zm-8.526-34.28c-10.424 5.211-18.929 10.767-25.494 16.675l1.338 1.486c6.396-5.756 14.738-11.216 25.05-16.373zm-25.481 16.663c-5.029 4.373-8.788 8.782-11.236 13.233l1.752.964c2.304-4.189 5.889-8.42 10.796-12.687zm-11.236 13.233c-2.43 4.419-3.688 8.582-3.688 12.47h2c0-3.456 1.119-7.285 3.44-11.506zm-3.688 12.47c0 6.44 3.135 11.697 9.194 15.736l1.109-1.664c-5.605-3.737-8.303-8.416-8.303-14.072zm9.173 15.722c6.061 4.265 14.39 6.338 24.875 6.338v-2c-10.251 0-18.121-2.031-23.724-5.974z"/></g></svg>