<svg height="206" viewBox="0 0 206 206" width="206" xmlns="http://www.w3.org/2000/svg"><g fill="none" fill-rule="evenodd" transform="translate(3.593089 3.593089)"><g fill-rule="nonzero"><circle cx="99.406911" cy="99.406911" fill="#fff" r="99.406911" stroke="#835531" stroke-width="6"/><path d="m137.416194 86.6941723s3.883961-9.0118618 4.280557-9.1799897 7.828262 7.3192367 7.658587 7.6070139l-4.254771 8.8447653c-2.815884-3.1480144-4.492006-4.7503868-7.684373-7.2717895z" fill="#835531"/><path d="m129.834966 73.7751418 4.048479-8.9221248c5.253739.0087674 7.779268.8705518 11.707066 3.5843218l-4.048479 8.9479113c-4.700877-3.3233625-7.259928-4.0510572-11.707066-3.6101083l-4.203197 9.1026302c5.118102.2011347 7.723053.9463642 11.758638 3.7390408l-3.971119 8.5869005c2.789067 3.2222795 4.353791 5.0159877 7.168644 7.8648787l4.461062-8.9994842c3.134606 3.6957194 5.030944 5.4053636 8.561114 8.0711702l4.100052-8.7416189c-3.415163-2.7777205-5.234657-4.5982465-8.303249-8.3290356l4.25477-8.5869004c2.75967 3.7024239 4.569882 5.4146467 8.122744 8.0195977l-4.074265 8.8963383c3.502836 2.5146983 5.804538 3.3367715 10.727179 3.3780299l4.151624-9.3347086c-4.468798-.3316142-6.782362-1.0985044-10.701392-3.0943785l4.074265-8.6384735c3.57607 2.0814853 5.61475 3.19082 10.288809 3.3780299l-3.661682 8.3548221c4.478082-.0407426 6.959258-.2877772 11.346055-1.0314595l-4.048479 7.1686436c-4.468798 1.7643115-6.97576 2.389376-11.4492 3.1975245l-3.867973 8.66426c3.986591-.313564 6.3574-.920062 10.856111-2.8623l-4.151624 9.257349c-4.148015 1.684373-6.502837 2.248582-10.752966 2.630222l4.048479-9.025271c-4.518309.070139-6.879835-.870552-10.959258-3.300671l-4.074265 8.793193c-3.681279-2.662713-5.598246-4.47705-8.947911-7.864879l-4.203198 8.638473c-2.659618-3.070654-4.263538-4.565755-7.297576-6.884992l4.33213-9.6183597c-4.24394-3.6606499-6.839092-4.1650336-11.681279-3.5327489l-4.409489 9.6699326c-3.80196.35276-5.778752.954616-9.231563 2.217638l4.280557-9.6183597c3.799381-1.1970087 5.856627-1.7106756 9.360495-2.2692109l3.89376-8.7931924c-3.012893.007736-5.071171.4167097-8.970088 1.4105209-9.323362 20.7539971-17.1789579 37.8035071-28.8071168 62.6946881l-2.6817947-1.882414 39.5822585-88.6797315 3.532749 1.8050541c-3.661165 8.2527076-6.952037 15.6395049-10.055699 22.5631769l1.623518-3.5585353c4.143373-2.0402269 6.321299-2.776689 9.97937-3.4553894z" fill="#835531"/><path d="m156.523981 123.646209c-4.767921-.202681-7.175863-1.14131-11.191335-3.687467l4.203197-8.793193c3.751418 2.359464 6.107788 3.170191 10.881898 3.45539z" fill="#835531"/><path d="m145.693657 68.3084064 4.100051-8.8963383c3.432182 2.9706034 5.231047 4.7818463 8.122744 8.3806085l-4.254771 8.509541c-2.896854-3.4419804-4.627127-5.2135121-7.968024-7.9938112z" fill="#835531"/></g><path d="m128.313564 58.1743167-3.558536-1.8050542-39.608045 88.7313045 2.6817947 1.933987 20.2423933-43.476019m20.242393-45.3842183c3.751934-1.6152656 6.94688-2.5260444 9.824652-2.7292419m-9.824652 2.7292419-3.558536 7.9783393m33.18721 1.5368747c-2.95771-3.5719443-5.59051-6.3630738-8.174316-8.375967m8.174316 8.375967c2.780815 3.3991748 5.306344 6.0598246 8.045384 7.9520371m-8.045384-7.9520371-4.306343 8.7931924m-17.276947 35.2759149c-2.617329-2.921093-4.977824-5.20526-7.297576-6.881897m7.297576 6.881897c3.280041 3.588964 6.17999 6.301702 8.947911 8.22589m-8.947911-8.22589 13.0459-26.6374415m-41.333677 18.4373385c3.514182-1.253739 6.521918-1.992264 9.231562-2.186178m-9.231562 2.186178 4.278494-9.5925732m25.788551-38.520887-20.835483 45.9272822m20.835483-45.9272822c4.318205-.305312 7.923156.980918 11.629706 3.8684889m-32.465189 42.0587933c4.412068-.316142 8.033007.810727 11.758639 3.504384m20.70655-45.5631773-16.322331 35.915936m-4.384219 9.6472413 4.384219-9.6472413m32.542031-19.5879319-20.680763 44.3429602m20.680763-44.3429602c2.976793 2.0567303 6.205777 3.2057762 10.288809 3.4105209m-30.969572 40.9324393c3.75967 2.613203 7.274884 3.772048 11.165549 3.696751m19.804023-44.6291903c3.605467.1810212 7.876741-.3744198 13.228468-1.6926251-2.080969 3.1970088-3.91542 6.1438886-5.574007 8.9479113m-7.654461-7.2552862-19.804023 44.6291903m0 0c3.279526-.06395 6.8262-1.004642 11.010831-2.691078 1.368231-3.323362 2.627643-6.368231 3.842702-9.231563m-46.570913-45.605982c12.735431-2.9690562 19.256834-1.6585869 28.880867 10.3300671m-28.880867-10.3300671-4.998452 11.2068076m33.879319-.8767405c8.236204 10.3192367 14.767406 12.6539453 30.294997 9.8246518m-30.294997-9.8246518-4.231047 8.6384734m34.526044 1.1861784c-1.458999 2.4667355-2.781846 4.8231047-4.01805 7.1428572m-60.156266-16.0907685c13.227952-6.9984528 19.487364-3.8865394 29.648272 7.7617329m-29.648272-7.7617329-3.128417 7.0139247m32.776689.7478082c10.575554 12.9979371 17.359464 14.0613718 30.507994 8.3290356m0 0c-1.616297 3.0335224-3.083549 6.0046415-4.510573 9.0768439m-58.77411-18.1536877c12.668386-3.3321299 18.801444-1.4125838 27.930892 9.0768438 11.643115 13.5678189 18.451264 14.1872099 30.843218 9.0768439m-58.77411-18.1536877-4.278494 9.5925735m63.052604 8.5611142c-1.364105 2.936565-2.691078 5.965962-4.076328 9.231562m-58.976276-17.7926762c11.186178-3.5765858 15.913873-3.450232 21.095926 1.2635379m0 0c14.671995 16.5291383 21.843733 23.5920583 37.88035 16.5291383" stroke="#835531" stroke-width=".5"/><path d="m124.677669 66.0391955 3.584322-7.8133059c4.074781-1.7302733 6.203197-2.3945332 9.515214-2.6302217l-4.100052 9.1284167z" fill="#835531" fill-rule="nonzero" stroke="#835531" stroke-width=".5"/><path d="m66.4584838 84.9401753s-3.0835483-9.3161423-3.4641568-9.5177926c-.3806086-.2021661-8.4363074 6.6090768-8.2924188 6.910263l3.4677669 9.1820526c3.0794224-2.8906653 4.8886024-4.3408974 8.2888087-6.574523z" fill="#835531" fill-rule="nonzero"/><path d="m75.1366684 72.7313048-3.2552862-9.2413615c-5.2346571-.4492006-7.8256834.1897885-11.9747293 2.5507994l3.2527076 9.2666322c4.973182-2.9009799 7.585869-3.4033006 11.9773079-2.5760701l3.3940175 9.4342445c-5.1165549-.2460031-7.776689.2697266-12.0397112 2.6998452l3.2073234 8.9004642c-3.0587932 2.9669933-4.7741104 4.6173285-7.8267148 7.2099023l-3.6596184-9.3537909c-3.444559 3.408458-5.4832388 4.9463641-9.2320268 7.2944817l-3.322589-9.0660134c3.6445075-2.4693141 5.6154719-4.1242909 8.9976277-7.5734915l-3.490459-8.9252192c-3.0716864 3.4476534-5.0242909 4.9953584-8.7905622 7.2810727l3.2833935 9.217638c-3.7085611 2.2001031-6.0730273 2.8179474-10.9807632 2.4301186l-3.3222796-9.6606498c4.4805055.0587932 6.8521919-.5033523 10.9303765-2.1500774l-3.3058793-8.9608045c-3.7439917 1.7617328-5.871377 2.6895307-10.5440433 2.4687983l2.9195461 8.6420836c-4.4575038-.4306344-6.9078906-.893244-11.2129448-2.0165034l3.4082517 7.4940691c4.2977824 2.1474987 6.7409489 2.9881382 11.1269727 4.1830841l3.0980918 8.96854c-3.9440949-.659618-6.2528108-1.4703451-10.565343-3.7973177l3.3290356 9.5838057c3.9852501 2.039196 6.282001 2.807117 10.4827746 3.557504l-3.2464672-9.343992c4.495049.463642 6.929345-.267663 11.2052604-2.3326452l3.2923672 9.1144922c3.8994327-2.331614 5.9669933-3.972151 9.599278-7.055183l3.4342444 8.97215c2.9174833-2.82723 4.6456937-4.176895 7.8700361-6.222795l-3.4775657-9.9592573c4.5471893-3.2764312 7.1758638-3.553378 11.9448169-2.5012893l3.5497679 10.0175346c3.7570913.682826 5.6735431 1.454874 9.0036101 3.013925l-3.4259927-9.9551316c-3.6807633-1.5239815-5.6854049-2.2145436-9.1273853-3.076328l-3.1124291-9.0990201c3.0010315.2702423 5.0159876.8566271 8.8127901 2.1872099 7.479113 21.4873648 13.818463 39.1567818 23.233626 64.9664778l2.835482-1.641568-31.7024241-91.792161-3.6766375 1.490459c2.9277979 8.5404848 5.5626612 16.1861784 8.0505416 23.3537906l-1.3068593-3.6864363c-3.9499742-2.3935018-6.0556988-3.3171738-9.6405363-4.3120165z" fill="#835531" fill-rule="nonzero"/><path d="m44.2027849 120.086127c4.7673028.213512 7.2479629-.511604 11.4702424-2.697782l-3.4208354-9.126354c-3.9431666 2.024239-6.360753 2.626096-11.1417742 2.494069z" fill="#835531" fill-rule="nonzero"/><path d="m59.814853 65.9030428-3.3089221-9.2197009c-3.6781846 2.6601341-5.6281073 4.307375-8.8223827 7.6405364l3.4969572 8.8478597c3.1856627-3.1758638 5.0639505-4.790098 8.6343476-7.2686952z" fill="#835531" fill-rule="nonzero"/><path d="m78.0118618 57.3223311 3.7024239-1.4878804 31.7240843 91.8457973-2.840123 1.692625-16.3764832-45.074781m-16.209902-46.9757609c-3.5966993-1.9360495-6.6998453-3.1217122-9.5492522-3.5750387m9.5492522 3.5750387 2.8499226 8.2583806m-33.1949458-1.3615266c3.2577617-3.3006704 6.1237751-5.8519855 8.8731305-7.6317689m-8.8731305 7.6317689c-3.0665292 3.1438886-5.8142857 5.5740073-8.7078391 7.2202167m8.7078391-7.2202167 3.5239814 9.1351212m14.1361527 36.6472407c2.8623001-2.681795 5.4125838-4.751418 7.8700361-6.219701m-7.8700361 6.219701c-3.580196 3.289325-6.7055183 5.739041-9.6307375 7.414647m9.6307375-7.414647-10.6745746-27.6730271m39.5693657 21.9695721c-3.3914389-1.555441-6.3233626-2.552863-9.005673-2.982465m9.005673 2.982465-3.4259928-9.9288295m-22.3331614-40.6219701 16.7534812 47.5683346m-16.7534812-47.5683346c-4.274884-.6807633-7.9788551.2867458-11.9226405 2.8401238m28.6761217 44.7282108c-4.3677153-.69933-8.0732337.107787-12.019082 2.466219m-16.6570397-47.1944298 13.1299639 37.2016503m3.5270758 9.9927795-3.5270758-9.9927795m-30.7109335-22.3496647 16.7372357 45.9767922m-16.7372357-45.9767922c-3.1446622 1.7895822-6.4615266 2.6529138-10.5468799 2.5012893m27.2841156 43.4755029c-3.9731821 2.275915-7.5758639 3.123775-11.4451264 2.709644m-15.8389892-46.1851469c-3.607478-.1340898-7.8141309-1.0598247-13.0305827-2.8396081 1.7945332 3.3661682 3.3648788 6.4615782 4.7727694 9.3996906m8.2578133-6.5600825 15.8389892 46.1851469m0 0c-3.2616813-.349665-6.7126869-1.596184-10.7343992-3.640536-1.0734914-3.429603-2.0628158-6.572976-3.0234141-9.531202m50.3684889-41.3733883c-12.4285714-4.0680763-19.0391954-3.3305828-29.6709644 7.7735946m29.6709644-7.7735946 4.0025787 11.5997937m-33.6735431-3.8261991c-9.1044868 9.5621455-15.8143888 11.318721-31.0365137 7.1464673m31.0365137-7.1464673 3.4615781 8.9742136m-34.4980918-1.8277463c1.2384219 2.5848375 2.3511089 5.0474471 3.380196 7.4662197m61.3298608-10.7864879c-12.5678185-8.1248066-19.0742651-5.5703971-30.211965 5.1480145m30.211965-5.1480145 2.5054151 7.2594121m-32.7173801-2.1113976c-11.6679216 12.0268179-18.5189272 12.4951005-31.1178958 5.6384734m0 0c1.3457968 3.1629706 2.5485818 6.2501289 3.7023208 9.4352759m60.1329551-12.9623517c-12.330067-4.4234141-18.6070139-3.0459-28.6157813 6.6080454-12.7814853 12.5018051-19.6175348 12.5250131-31.5171738 6.3543063m60.1329551-12.9623517 3.4259928 9.929345m-63.5589479 3.0330067c1.1028881 3.0443528 2.1610108 6.1779268 3.2564724 9.5518308m60.3024755-12.5848375c-10.8318721-4.5379061-15.5523466-4.8241361-21.125838-.580196m0 0c-16.0567303 15.1877255-23.8166581 21.5987625-39.1766375 13.1650335" stroke="#835531" stroke-width=".5"/><path d="m80.948427 65.4739556-2.8896338-8.0959257c-3.9082001-2.0783909-5.9706034-2.9262506-9.2496132-3.4492006l3.2888087 9.4507478z" fill="#835531" fill-rule="nonzero" stroke="#835531" stroke-width=".5"/></g></svg>