<svg height="206" viewBox="0 0 206 206" width="206" xmlns="http://www.w3.org/2000/svg"><g fill="none" fill-rule="evenodd"><circle cx="103" cy="103" fill="#fff" fill-rule="nonzero" r="99.406911" stroke="#835531" stroke-width="6"/><g transform="translate(50.593089 57.593089)"><g fill="#835531" fill-rule="nonzero"><path d="m52.269211 31.2930158s3.883961-9.0118618 4.280557-9.1799897 7.828262 7.3192367 7.658587 7.6070139l-4.254771 8.8447653c-2.815884-3.1480144-4.492006-4.7503868-7.684373-7.2717895z"/><path d="m44.687983 18.3739853 4.048479-8.92212481c5.253739.0087674 7.779268.87055181 11.707066 3.58432181l-4.048479 8.9479113c-4.700877-3.3233625-7.259928-4.0510572-11.707066-3.6101083l-4.203197 9.1026302c5.118102.2011347 7.723053.9463642 11.758638 3.7390408l-3.971119 8.5869005c2.789067 3.2222795 4.353791 5.0159877 7.168644 7.8648787l4.461062-8.9994842c3.134606 3.6957194 5.030944 5.4053636 8.561114 8.0711702l4.100052-8.7416189c-3.415163-2.7777205-5.234657-4.5982465-8.303249-8.3290356l4.25477-8.5869004c2.75967 3.7024239 4.569882 5.4146467 8.122744 8.0195977l-4.074265 8.8963383c3.502836 2.5146983 5.804538 3.3367715 10.727179 3.3780299l4.151624-9.3347086c-4.468798-.3316142-6.782362-1.0985044-10.701392-3.0943785l4.074265-8.6384735c3.57607 2.0814853 5.61475 3.19082 10.288809 3.3780299l-3.661682 8.3548221c4.478082-.0407426 6.959258-.2877772 11.346055-1.0314595l-4.048479 7.1686436c-4.468798 1.7643115-6.97576 2.389376-11.4492 3.1975245l-3.867973 8.66426c3.986591-.313564 6.3574-.920062 10.856111-2.8623l-4.151624 9.257349c-4.148015 1.684373-6.502837 2.248582-10.752966 2.630222l4.048479-9.025271c-4.518309.070139-6.879835-.870552-10.959258-3.300671l-4.074265 8.793193c-3.681279-2.662713-5.598246-4.47705-8.947911-7.864879l-4.203198 8.638473c-2.659618-3.070654-4.263538-4.565755-7.297576-6.884992l4.33213-9.6183597c-4.24394-3.6606499-6.839092-4.1650336-11.681279-3.5327489l-4.409489 9.6699326c-3.80196.35276-5.778752.954616-9.231563 2.217638l4.280557-9.6183597c3.799381-1.1970087 5.856627-1.7106756 9.360495-2.2692109l3.89376-8.7931924c-3.012893.007736-5.071171.4167097-8.970088 1.4105209-9.323362 20.7539971-17.1789579 37.8035071-28.8071168 62.6946881l-2.6817947-1.882414 39.5822585-88.67973151 3.532749 1.8050541c-3.661165 8.25270761-6.952037 15.63950491-10.055699 22.56317691l1.623518-3.5585353c4.143373-2.0402269 6.321299-2.776689 9.97937-3.4553894z"/><path d="m71.376998 68.2450525c-4.767921-.202681-7.175863-1.14131-11.191335-3.687467l4.203197-8.793193c3.751418 2.359464 6.107788 3.170191 10.881898 3.45539z"/><path d="m60.546674 12.9072499 4.100051-8.89633831c3.432182 2.9706034 5.231047 4.7818463 8.122744 8.38060851l-4.254771 8.509541c-2.896854-3.4419804-4.627127-5.2135121-7.968024-7.9938112z"/></g><path d="m43.166581 2.77316019-3.558536-1.8050542-39.608045 88.73130451 2.6817947 1.933987 20.2423933-43.476019m20.242393-45.38421831c3.751934-1.6152656 6.94688-2.5260444 9.824652-2.7292419m-9.824652 2.7292419-3.558536 7.97833931m33.18721 1.5368747c-2.95771-3.57194431-5.59051-6.36307381-8.174316-8.37596701m8.174316 8.37596701c2.780815 3.3991748 5.306344 6.0598246 8.045384 7.9520371m-8.045384-7.9520371-4.306343 8.7931924m-17.276947 35.2759149c-2.617329-2.921093-4.977824-5.20526-7.297576-6.881897m7.297576 6.881897c3.280041 3.588964 6.17999 6.301702 8.947911 8.22589m-8.947911-8.22589 13.0459-26.6374415m-41.333677 18.4373385c3.514182-1.253739 6.521918-1.992264 9.231562-2.186178m-9.231562 2.186178 4.278494-9.5925732m25.788551-38.52088701-20.835483 45.92728221m20.835483-45.92728221c4.318205-.305312 7.923156.980918 11.629706 3.8684889m-32.465189 42.05879331c4.412068-.316142 8.033007.810727 11.758639 3.504384m20.70655-45.56317731-16.322331 35.91593601m-4.384219 9.6472413 4.384219-9.6472413m32.542031-19.5879319-20.680763 44.3429602m20.680763-44.3429602c2.976793 2.0567303 6.205777 3.2057762 10.288809 3.4105209m-30.969572 40.9324393c3.75967 2.613203 7.274884 3.772048 11.165549 3.696751m19.804023-44.6291903c3.605467.1810212 7.876741-.3744198 13.228468-1.6926251-2.080969 3.1970088-3.91542 6.1438886-5.574007 8.9479113m-7.654461-7.2552862-19.804023 44.6291903m0 0c3.279526-.06395 6.8262-1.004642 11.010831-2.691078 1.368231-3.323362 2.627643-6.368231 3.842702-9.231563m-46.570913-45.605982c12.735431-2.96905621 19.256834-1.65858691 28.880867 10.3300671m-28.880867-10.3300671-4.998452 11.2068076m33.879319-.8767405c8.236204 10.3192367 14.767406 12.6539453 30.294997 9.8246518m-30.294997-9.8246518-4.231047 8.6384734m34.526044 1.1861784c-1.458999 2.4667355-2.781846 4.8231047-4.01805 7.1428572m-60.156266-16.0907685c13.227952-6.9984528 19.487364-3.8865394 29.648272 7.7617329m-29.648272-7.7617329-3.128417 7.0139247m32.776689.7478082c10.575554 12.9979371 17.359464 14.0613718 30.507994 8.3290356m0 0c-1.616297 3.0335224-3.083549 6.0046415-4.510573 9.0768439m-58.77411-18.1536877c12.668386-3.3321299 18.801444-1.4125838 27.930892 9.0768438 11.643115 13.5678189 18.451264 14.1872099 30.843218 9.0768439m-58.77411-18.1536877-4.278494 9.5925735m63.052604 8.5611142c-1.364105 2.936565-2.691078 5.965962-4.076328 9.231562m-58.976276-17.7926762c11.186178-3.5765858 15.913873-3.450232 21.095926 1.2635379m0 0c14.671995 16.5291383 21.843733 23.5920583 37.88035 16.5291383" stroke="#835531" stroke-width=".5"/><path d="m39.530686 10.638039 3.584322-7.81330591c4.074781-1.7302733 6.203197-2.3945332 9.515214-2.6302217l-4.100052 9.1284167z" fill="#835531" fill-rule="nonzero" stroke="#835531" stroke-width=".5"/></g></g></svg>